<?xml version="1.0" encoding="UTF-8"?>
<svg version="1.1" xmlns="http://www.w3.org/2000/svg" width="1024" height="1024">
<path d="M0 0 C337.92 0 675.84 0 1024 0 C1024 337.92 1024 675.84 1024 1024 C686.08 1024 348.16 1024 0 1024 C0 686.08 0 348.16 0 0 Z " fill="#FDFDFD" transform="translate(0,0)"/>
<path d="M0 0 C1.64574566 -0.02688151 3.29161413 -0.04634123 4.9375 -0.0625 C5.85402344 -0.07410156 6.77054687 -0.08570313 7.71484375 -0.09765625 C10 0 10 0 11 1 C11.27070899 4.63953196 11.44645517 8.27243524 11.60546875 11.91796875 C11.42699095 15.77473093 11.42699095 15.77473093 13 19 C14.41120902 19.22571184 15.83176043 19.39388349 17.25390625 19.53515625 C18.10791016 19.62216797 18.96191406 19.70917969 19.84179688 19.79882812 C20.73962891 19.88583984 21.63746094 19.97285156 22.5625 20.0625 C23.91504883 20.19881836 23.91504883 20.19881836 25.29492188 20.33789062 C27.52958434 20.56253923 29.76457839 20.78305769 32 21 C32.14308594 19.95714844 32.28617187 18.91429687 32.43359375 17.83984375 C32.89399237 14.71865864 33.4278257 11.65124824 34.0625 8.5625 C34.23910156 7.69753906 34.41570312 6.83257812 34.59765625 5.94140625 C34.73042969 5.30074219 34.86320312 4.66007812 35 4 C41.15234375 3.90234375 41.15234375 3.90234375 43 4 C44.51421001 5.51421001 44.21309856 6.92472768 44.31640625 9.03515625 C44.35830078 9.84404297 44.40019531 10.65292969 44.44335938 11.48632812 C44.48267578 12.33646484 44.52199219 13.18660156 44.5625 14.0625 C44.60568359 14.91650391 44.64886719 15.77050781 44.69335938 16.65039062 C44.79976702 18.76672037 44.90041731 20.88333813 45 23 C46.03125 23.33 47.0625 23.66 48.125 24 C48.70507812 24.185625 49.28515625 24.37125 49.8828125 24.5625 C52.61899018 25.20236661 52.61899018 25.20236661 58 25 C59.98 21.04 61.96 17.08 64 13 C70 14 70 14 73 16 C72.60257166 19.37814093 72.24546563 22.40799465 70.9375 25.5625 C69.68392153 28.82180403 69.30615547 30.53077733 70 34 C71.85807547 35.94613592 73.84872643 37.57859604 75.953125 39.25390625 C78.65690961 41.560379 80.21465261 43.95003153 82 47 C85.43926312 46.59056391 87.95626383 46.02231437 91.0625 44.4375 C94.05593804 42.97262606 95.72947521 42.71142428 99 43 C102 48.625 102 48.625 102 52 C99.6640625 53.82421875 99.6640625 53.82421875 96.625 55.6875 C95.62726563 56.31011719 94.62953125 56.93273437 93.6015625 57.57421875 C91 59 91 59 89 59 C89.2165625 60.06476563 89.433125 61.12953125 89.65625 62.2265625 C91.4998517 71.69213727 92.30561122 80.32231145 92 90 C96.95 90.99 101.9 91.98 107 93 C108.28485596 98.13942384 107.22194431 99.37835584 105 104 C100.05 103.34 95.1 102.68 90 102 C89.2575 104.000625 88.515 106.00125 87.75 108.0625 C86.27859342 111.93019729 84.82492581 115.55492599 82.625 119.0625 C80.78852784 121.73128129 80.78852784 121.73128129 81.18359375 123.96875 C82.18360894 126.45682608 83.45125153 127.64946344 85.4375 129.4375 C88.23948126 132.10167891 89.95883786 134.18240549 91 138 C88.75 140.5 88.75 140.5 86 143 C82 143 82 143 79.375 140.625 C78.59125 139.75875 77.8075 138.8925 77 138 C76.34 137.34 75.68 136.68 75 136 C72.17042171 136.36276645 69.70915709 137.09694764 67 138 C67 138.66 67 139.32 67 140 C66.34 140 65.68 140 65 140 C66.5347459 145.18694872 68.78451676 149.7473121 71.3125 154.5 C71.75053955 155.32749756 72.1885791 156.15499512 72.63989258 157.00756836 C77.01374807 165.17754272 81.73269178 173.13035792 86.48828125 181.08203125 C89.00853079 185.30490032 91.47895261 189.55404711 93.91796875 193.82421875 C94.24808456 194.40124039 94.57820038 194.97826202 94.9183197 195.57276917 C96.52180446 198.37678757 98.12036841 201.18343092 99.71166992 203.99438477 C106.52969906 217.1598288 106.52969906 217.1598288 117 227 C119.89733019 227.77025138 122.12664181 227.92462443 125 227 C127.49816042 224.75098227 128.66400493 222.04716683 130 219 C130.39703125 218.12085938 130.7940625 217.24171875 131.203125 216.3359375 C139.43348034 195.76004916 141.93843632 172.50492845 145.39550781 150.75488281 C145.98037361 147.12191191 146.59127341 143.49436779 147.2109375 139.8671875 C150.81484432 118.56076357 153.50554135 97.15442073 156.16455078 75.71289062 C156.90621475 69.73924337 157.65962312 63.76712502 158.41583252 57.79530334 C159.05964796 52.7108293 159.70108324 47.62605655 160.34210205 42.54122925 C160.65280509 40.07836244 160.96411349 37.61557191 161.27606201 35.15286255 C161.71389104 31.69206209 162.14837404 28.23085663 162.58203125 24.76953125 C162.71093246 23.75574402 162.83983368 22.74195679 162.97264099 21.69744873 C163.83103434 14.81014397 164.47141328 7.92024071 165 1 C165.66 1 166.32 1 167 1 C167.1858667 1.54825439 167.3717334 2.09650879 167.56323242 2.66137695 C168.4322339 5.21375079 169.30983522 7.76309277 170.1875 10.3125 C170.47947266 11.17423828 170.77144531 12.03597656 171.07226562 12.92382812 C172.64568023 17.47488757 174.35273582 21.88208815 176.3828125 26.25 C179.1903304 32.29125787 181.56814375 38.48045188 183.93313599 44.70419312 C187.82302031 54.9311316 191.80646456 65.1063324 196.0625 75.1875 C201.16537582 87.27974447 205.94130873 99.49292511 210.71582031 111.71777344 C212.62961287 116.60922346 214.55860016 121.49444735 216.5 126.375 C216.81404785 127.17067383 217.1280957 127.96634766 217.45166016 128.78613281 C219.11836425 132.96612086 220.91915312 137.00325142 223 141 C228.8092261 128.04034398 234.26759614 114.97497969 239.4375 101.75 C239.71331909 101.04464111 239.98913818 100.33928223 240.27331543 99.61254883 C240.55018188 98.90445068 240.82704834 98.19635254 241.11230469 97.46679688 C241.66856153 96.04424805 242.22487636 94.6217219 242.78125 93.19921875 C243.19120209 92.15095413 243.19120209 92.15095413 243.60943604 91.08151245 C247.47036432 81.22539245 251.48364421 71.43160038 255.50634766 61.640625 C256.86800692 58.32171964 258.22428496 55.0006852 259.57884216 51.67887878 C266.11623195 35.65398162 272.76149656 19.72502471 280 4 C287.92 4 295.84 4 304 4 C305.70675838 22.38699273 307.15144125 40.76463239 308.20126343 59.20153809 C309.27665671 78.07088393 310.71902527 96.87147236 312.5 115.6875 C314.54941793 137.35780445 316.15085319 159.01993951 317.47523499 180.74533081 C317.88393468 187.36144114 318.35105037 193.97196833 318.84765625 200.58203125 C318.91821228 201.52296631 318.98876831 202.46390137 319.0614624 203.43334961 C319.39710555 207.88883072 319.73865913 212.34378978 320.08642578 216.79833984 C320.70623627 224.88042515 321.2124291 232.88610749 321 241 C315.98311308 241.9796401 310.96601782 242.95820378 305.94873047 243.93579102 C304.24359529 244.26818077 302.5385164 244.60085938 300.83349609 244.93383789 C298.3761258 245.41369216 295.91855185 245.89249119 293.4609375 246.37109375 C292.70444916 246.51904892 291.94796082 246.66700409 291.16854858 246.81944275 C289.74466023 247.09633481 288.32007074 247.36965244 286.89471436 247.6388855 C285.29216604 247.94431594 283.69364045 248.27073956 282.09619141 248.60180664 C277.72731556 249.16367673 273.3983366 249.07823128 269 249 C268.8734669 234.00619309 269.01552695 219.03795596 269.4375 204.05078125 C269.45951603 203.26536894 269.48153206 202.47995663 269.50421524 201.67074394 C269.61954639 197.57652046 269.73696735 193.48235928 269.8550415 189.38821411 C270.83523967 155.24691443 271.27889618 121.1562004 271 87 C264.18538755 101.92952905 257.40105371 116.86071662 251.0625 132 C247.24680274 141.11204128 243.26125501 150.08819015 239 159 C237.97793658 161.20776429 236.95717283 163.41613058 235.9375 165.625 C233.53558983 170.7995077 231.06921229 175.94224717 228.5859375 181.078125 C228.27856155 181.71386444 227.97118561 182.34960388 227.65449524 183.00460815 C226.09712684 186.22394038 224.53724434 189.44203098 222.97436523 192.65869141 C219.86929737 199.0592525 216.83907115 205.47647672 214 212 C213.01 212 212.02 212 211 212 C209.31605396 209.80235924 207.84071857 207.65007085 206.375 205.3125 C205.46847419 203.90949261 204.56090601 202.50715823 203.65234375 201.10546875 C203.20101074 200.40341309 202.74967773 199.70135742 202.28466797 198.97802734 C200.55848053 196.32018419 198.75460232 193.72136647 196.9375 191.125 C191.6639825 183.55252914 186.50319544 175.90381731 181.328125 168.26391602 C176.53698531 161.20881364 171.65118135 154.24245058 166.58984375 147.37890625 C165 145 165 145 165 143 C164.34 143 163.68 143 163 143 C162.91782227 144.10686157 162.91782227 144.10686157 162.83398438 145.23608398 C161.42620575 163.24105761 158.06195145 180.66003624 153.5625 198.125 C153.37558594 198.85486115 153.18867188 199.58472229 152.99609375 200.33670044 C149.53473778 213.76741969 145.97826224 227.34900919 139.375 239.625 C138.95186523 240.41986816 138.52873047 241.21473633 138.09277344 242.03369141 C132.7546689 251.70827369 125.8750887 260.33155904 117 267 C116.01 267 115.02 267 114 267 C111.9873569 264.48419612 110.91764116 262.95600854 111.19921875 259.6875 C112.17101013 256.42607333 113.68489232 254.02098068 115.5625 251.1875 C116.52349609 249.72376953 116.52349609 249.72376953 117.50390625 248.23046875 C117.99761719 247.49441406 118.49132812 246.75835938 119 246 C117.865625 245.95875 116.73125 245.9175 115.5625 245.875 C106.62515288 244.69281123 101.37307387 238.51102338 96.09228516 231.76293945 C92.75698437 227.35855218 89.57593324 222.85865074 86.4375 218.3125 C85.40604858 216.82472046 85.40604858 216.82472046 84.35375977 215.30688477 C79.60482859 208.42052728 74.98697036 201.45687157 70.4375 194.4375 C65.32170463 186.54884046 60.18071912 178.67975215 54.9375 170.875 C54.330271 169.9564624 53.72304199 169.0379248 53.09741211 168.09155273 C49.44347096 162.6875367 45.96942177 157.98471088 40 155 C38.46331135 154.77532169 36.92031946 154.59203195 35.375 154.4375 C34.55773437 154.35371094 33.74046875 154.26992188 32.8984375 154.18359375 C32.27195312 154.12300781 31.64546875 154.06242188 31 154 C30.4993603 167.58630585 30.02178814 181.17030922 29.72595215 194.76275635 C29.61226665 199.91901971 29.47923593 205.07471157 29.34472656 210.23046875 C29.2804385 212.87356967 29.22296933 215.51580107 29.17675781 218.15917969 C29.10818672 222.04705799 29.00047295 225.93337285 28.890625 229.8203125 C28.87582092 231.00440704 28.86101685 232.18850159 28.84576416 233.40847778 C28.809328 234.4958725 28.77289185 235.58326721 28.73535156 236.70361328 C28.71394104 237.65761017 28.69253052 238.61160706 28.67047119 239.59451294 C28 242 28 242 25.63763428 243.78536987 C22.72291785 245.12759628 20.17066872 245.71432622 17 246.1875 C15.989375 246.34605469 14.97875 246.50460937 13.9375 246.66796875 C11.25481858 246.97119737 8.69519337 247.02414539 6 247 C5.62335043 238.57357209 5.24936066 230.14703135 4.87835789 221.72035313 C4.70582796 217.80334187 4.53253254 213.88636831 4.35717773 209.96948242 C2.67980204 172.46586152 1.74601678 134.97015462 1.07006836 97.43603516 C0.9822788 92.56554505 0.89207782 87.69510961 0.79956055 82.82470703 C0.2752774 55.21429566 -0.17572029 27.61602029 0 0 Z " fill="#1344D0" transform="translate(277,280)"/>
<path d="M0 0 C0.78755676 -0.00540298 1.57511353 -0.01080597 2.38653564 -0.01637268 C4.97983809 -0.02884238 7.57202687 -0.01238591 10.1652832 0.00561523 C11.96938638 0.00546025 13.77348988 0.00397139 15.57759094 0.00120544 C19.35282157 -0.00017759 23.12767182 0.01236718 26.90283203 0.03515625 C31.74878097 0.06360186 36.59410091 0.06078583 41.44009686 0.04806614 C45.1623729 0.04112353 48.88450266 0.04888092 52.60676003 0.06132317 C54.39418795 0.06584719 56.18163152 0.06616619 57.9690609 0.06225777 C60.46147466 0.05935784 62.95300962 0.07579085 65.4453125 0.09765625 C66.55885857 0.09090378 66.55885857 0.09090378 67.69490051 0.08401489 C69.74662781 0.11402893 69.74662781 0.11402893 73.02856445 0.50170898 C76.2634614 5.35405441 75.8125452 10.79804278 76.02856445 16.50170898 C76.06256348 17.35941895 76.0965625 18.21712891 76.1315918 19.10083008 C76.22894103 21.92198118 76.29010205 24.74186275 76.34106445 27.56420898 C76.37087402 28.48057129 76.40068359 29.39693359 76.43139648 30.34106445 C76.43896973 31.21005371 76.44654297 32.07904297 76.4543457 32.97436523 C76.47621948 34.13850952 76.47621948 34.13850952 76.49853516 35.32617188 C75.79428178 38.58622477 74.78465115 39.609687 72.02856445 41.50170898 C68.95469928 42.08979545 65.9318571 42.0622295 62.80981445 42.03295898 C61.9149231 42.03678589 61.02003174 42.04061279 60.09802246 42.04455566 C58.20848463 42.04727419 56.31890913 42.03991714 54.42944336 42.02319336 C51.53845255 42.00178222 48.64994679 42.02299632 45.7590332 42.04858398 C43.92178814 42.0459407 42.08454462 42.0408157 40.24731445 42.03295898 C38.95186707 42.04510437 38.95186707 42.04510437 37.63024902 42.05749512 C31.67274694 41.96448808 31.67274694 41.96448808 28.51782227 39.69799805 C26.414927 36.59674464 25.86177133 33.38131413 25.27856445 29.75170898 C25.15352539 29.05432617 25.02848633 28.35694336 24.8996582 27.63842773 C24.59517585 25.92864223 24.30992511 24.21545114 24.02856445 22.50170898 C21.0905145 22.42084522 18.15468371 22.36128069 15.21606445 22.31420898 C13.96599609 22.27650391 13.96599609 22.27650391 12.69067383 22.23803711 C11.88823242 22.22836914 11.08579102 22.21870117 10.2590332 22.20874023 C9.15144653 22.18517456 9.15144653 22.18517456 8.02148438 22.16113281 C5.43807979 22.60261871 4.61284839 23.44686331 3.02856445 25.50170898 C1.17978647 31.26554622 0.47400829 37.14161467 -0.33862305 43.12670898 C-1.10642666 48.60284053 -2.0488998 54.04993993 -2.97143555 59.50170898 C-4.06851112 65.99328045 -5.14370928 72.47837029 -6.03393555 79.00170898 C-6.67104068 83.66837123 -7.48108056 88.27341936 -8.3815918 92.89624023 C-9.82090735 100.43046022 -10.97874769 107.98545675 -12.0486145 115.57974243 C-13.68834865 127.19397988 -15.48119021 138.76464453 -17.53393555 150.31420898 C-19.40778703 160.88247178 -20.97221363 171.46032574 -22.37524414 182.10058594 C-23.94614594 193.79411422 -25.91410848 205.41326989 -27.95361328 217.03320312 C-29.26273505 224.59173901 -30.30735045 232.02909638 -30.58911133 239.71240234 C-31.46703856 246.11745894 -35.13644903 251.0037608 -40.03393555 255.00170898 C-41.00331055 255.49670898 -41.97268555 255.99170898 -42.97143555 256.50170898 C-43.75518555 256.91420898 -44.53893555 257.32670898 -45.34643555 257.75170898 C-48.98241017 258.79055888 -52.1952662 258.62971473 -55.97143555 258.50170898 C-56.19831055 259.34733398 -56.42518555 260.19295898 -56.65893555 261.06420898 C-60.32144491 270.6564954 -66.84483183 274.69368228 -75.97143555 278.87670898 C-84.5156903 280.65676206 -90.48906275 279.54672964 -98.19799805 275.34545898 C-103.23747918 271.99526871 -106.96409665 268.09074846 -109.16992188 262.42138672 C-110.6764134 259.24078702 -110.6764134 259.24078702 -113.78637695 258.71679688 C-115.47512939 258.68960571 -115.47512939 258.68960571 -117.19799805 258.66186523 C-118.45 258.62464355 -119.70200195 258.58742188 -120.99194336 258.54907227 C-122.96179199 258.52562744 -122.96179199 258.52562744 -124.97143555 258.50170898 C-127.54189938 258.39999531 -130.11221792 258.29453922 -132.68237305 258.18530273 C-135.23697283 258.10058386 -137.79166332 258.01855782 -140.34643555 257.93920898 C-141.67977694 257.8958364 -143.01311036 257.85221757 -144.34643555 257.80834961 C-147.55469943 257.70373231 -150.76302011 257.60155061 -153.97143555 257.50170898 C-154.11460205 258.2803833 -154.25776855 259.05905762 -154.40527344 259.86132812 C-155.59173013 265.39454467 -158.9109849 269.90214862 -163.34643555 273.34545898 C-170.23008541 277.62675341 -176.74741822 280.210676 -184.97143555 279.50170898 C-194.51685311 277.21147745 -201.20955712 272.41701672 -206.97143555 264.50170898 C-210.59480252 258.37770847 -210.99261039 251.43540033 -209.97143555 244.50170898 C-207.11285636 235.44393652 -202.00411868 229.46644182 -193.97143555 224.50170898 C-187.44144604 221.20417275 -178.4698794 221.27040865 -171.4597168 223.18920898 C-169.44717975 224.1381459 -167.75633111 225.1753187 -165.97143555 226.50170898 C-165.3475293 226.96061523 -164.72362305 227.41952148 -164.08081055 227.89233398 C-160.19916078 230.99113001 -157.38431005 234.15853487 -154.97143555 238.50170898 C-154.97143555 239.49170898 -154.97143555 240.48170898 -154.97143555 241.50170898 C-140.12143555 241.50170898 -125.27143555 241.50170898 -109.97143555 241.50170898 C-109.64143555 240.18170898 -109.31143555 238.86170898 -108.97143555 237.50170898 C-105.23097202 230.48833988 -98.61085187 224.86011077 -90.97143555 222.50170898 C-79.77446644 221.4825995 -72.65934987 222.93657543 -63.83862305 229.81811523 C-60.92632003 232.4440621 -59.00036341 235.14129721 -56.97143555 238.50170898 C-56.97143555 239.49170898 -56.97143555 240.48170898 -56.97143555 241.50170898 C-53.31826884 240.25194143 -52.19077719 239.83072145 -49.97143555 236.50170898 C-49.38850334 233.76484225 -48.89606784 231.07561788 -48.47143555 228.31420898 C-48.27916382 227.11948975 -48.27916382 227.11948975 -48.08300781 225.90063477 C-47.04745052 219.33625461 -46.22574779 212.75517449 -45.4987793 206.15014648 C-44.92137005 202.15532993 -43.97345206 198.41010461 -42.97143555 194.50170898 C-43.57140602 194.49747705 -44.1713765 194.49324511 -44.78952789 194.48888493 C-59.65250728 194.38381722 -74.5154559 194.27498446 -89.37837982 194.16236973 C-96.56710185 194.1079849 -103.75582843 194.05472526 -110.94458008 194.00439453 C-165.93300482 193.61793746 -165.93300482 193.61793746 -192.77137756 193.14585686 C-194.86681402 193.10994719 -196.96230779 193.07722597 -199.05784607 193.04785347 C-201.89845755 193.00689206 -204.73853797 192.95342748 -207.57885742 192.89599609 C-208.41030273 192.88622931 -209.24174805 192.87646252 -210.09838867 192.86639977 C-215.74237203 192.7307725 -215.74237203 192.7307725 -217.97143555 190.50170898 C-218.59121093 188.24993819 -219.11551177 185.97157645 -219.5925293 183.68530273 C-219.7379567 182.9959816 -219.88338409 182.30666046 -220.03321838 181.59645081 C-220.34176135 180.12688726 -220.64666532 178.65655577 -220.94824219 177.18554688 C-221.39683156 174.99822796 -221.85583422 172.81333037 -222.31713867 170.62866211 C-223.9195572 162.97996597 -225.37686763 155.3194911 -226.70481873 147.6177063 C-228.54391722 137.06767529 -230.66130627 126.56882801 -232.73266602 116.0625 C-233.47196225 112.31153667 -234.20820844 108.55998382 -234.9440918 104.80834961 C-238.07774534 88.81294228 -238.07774534 88.81294228 -241.50854492 72.87939453 C-241.97143555 70.50170898 -241.97143555 70.50170898 -241.97143555 67.50170898 C-236.8790739 65.45698094 -232.51759027 65.21043901 -227.12564087 65.22323608 C-226.24663411 65.21744368 -225.36762736 65.21165128 -224.46198404 65.20568335 C-221.52320259 65.18870847 -218.58457843 65.185809 -215.64575195 65.18286133 C-213.53651546 65.17356143 -211.42728265 65.16339266 -209.3180542 65.15242004 C-203.59545931 65.12511304 -197.87288906 65.10996849 -192.15024614 65.09699202 C-186.16844386 65.08136461 -180.1866919 65.05457312 -174.20492554 65.02896118 C-162.87911793 64.98216655 -151.55330086 64.94542571 -140.22744596 64.91228831 C-127.33272056 64.8740718 -114.43804568 64.82466038 -101.54336286 64.77430415 C-75.01942453 64.67097409 -48.49545375 64.58171714 -21.97143555 64.50170898 C-21.83622907 63.34196973 -21.70102259 62.18223047 -21.56171894 60.9873476 C-21.38145032 59.44658394 -21.20115184 57.90582376 -21.02082825 56.36506653 C-20.93205933 55.60295884 -20.84329041 54.84085114 -20.75183153 54.05564928 C-19.73297832 45.36155891 -18.46066669 36.71475436 -17.10449219 28.06738281 C-16.80405834 26.12666246 -16.51258208 24.18453697 -16.22949219 22.24121094 C-15.81356171 19.39091269 -15.37024827 16.5460853 -14.9206543 13.70092773 C-14.79961838 12.83433029 -14.67858246 11.96773285 -14.55387878 11.07487488 C-14.42056656 10.26915543 -14.28725433 9.46343597 -14.14990234 8.63330078 C-14.04268356 7.92956833 -13.93546478 7.22583588 -13.82499695 6.5007782 C-11.20246701 0.3587258 -5.96007859 -0.07825958 0 0 Z " fill="#1F4DE3" transform="translate(850.971435546875,286.498291015625)"/>
<path d="M0 0 C1.32 4.62 2.64 9.24 4 14 C14.89 14.495 14.89 14.495 26 15 C27.98 11.04 29.96 7.08 32 3 C35.75635569 3.75127114 37.83210307 4.24005726 41 6 C40.86722656 6.56847656 40.73445313 7.13695312 40.59765625 7.72265625 C40.22923814 9.33347704 39.87867537 10.9484518 39.54296875 12.56640625 C39 15 39 15 37.875 18.5 C38.05151878 23.44252574 40.49065567 25.21478466 43.8515625 28.65234375 C47.02040651 32.11502602 51 37.10509982 51 42 C51.60328125 41.71125 52.2065625 41.4225 52.828125 41.125 C53.62734375 40.75375 54.4265625 40.3825 55.25 40 C56.03890625 39.62875 56.8278125 39.2575 57.640625 38.875 C60 38 60 38 64 38 C66.56771603 41.30134918 67 42.72874492 67 47 C64.03 48.65 61.06 50.3 58 52 C58.64654303 56.77363943 58.64654303 56.77363943 59.5625 61.5 C60.15136402 64.86493724 60.43398112 67.59014831 60 71 C57.375 73.5 57.375 73.5 54 75 C50.7890625 74.59375 50.7890625 74.59375 48 74 C47.67128906 72.74896484 47.67128906 72.74896484 47.3359375 71.47265625 C44.45330984 61.24284347 40.97637558 53.69679751 32.3203125 47.2890625 C25.83039469 43.6835526 20.02270866 42.467113 12.625 42.5625 C11.78718994 42.57152344 10.94937988 42.58054687 10.08618164 42.58984375 C-1.20992768 42.90603381 -8.91541045 47.1335444 -17 55 C-26.3947918 65.88307564 -30.83412606 79.23250719 -34 93 C-34.176521 93.72268066 -34.35304199 94.44536133 -34.53491211 95.18994141 C-35.14643837 98.88477987 -35.18219564 102.53883576 -35.203125 106.2734375 C-35.21167511 107.4746373 -35.21167511 107.4746373 -35.22039795 108.70010376 C-35.2298252 110.39624727 -35.23637287 112.09240891 -35.24023438 113.78857422 C-35.24983784 116.33205168 -35.2808388 118.87468418 -35.3125 121.41796875 C-35.43755261 140.57184018 -32.12001144 159.94470259 -21 176 C-20.401875 176.9075 -19.80375 177.815 -19.1875 178.75 C-11.42649923 186.73274364 -2.58818204 190.09351352 8.375 190.4375 C19.07052154 190.19125676 26.98277258 186.97534104 35 180 C35.54398437 179.58363281 36.08796875 179.16726563 36.6484375 178.73828125 C44.12877947 172.41606329 46.12145954 162.1227221 47.0625 152.8125 C47.15660156 151.56082031 47.25070313 150.30914062 47.34765625 149.01953125 C48 146 48 146 49.8671875 144.59765625 C52.76758178 143.7849084 55.00447621 143.61759271 58 144 C62.23454526 148.29503876 61.65811244 153.25628895 62 159 C65.96 159.33 69.92 159.66 74 160 C74.09765625 166.93359375 74.09765625 166.93359375 74 169 C73 170 73 170 70.27734375 170.09765625 C68.62412109 170.08025391 68.62412109 170.08025391 66.9375 170.0625 C65.83277344 170.05347656 64.72804687 170.04445313 63.58984375 170.03515625 C62.30787109 170.01775391 62.30787109 170.01775391 61 170 C61.02320313 170.87140625 61.04640625 171.7428125 61.0703125 172.640625 C61.19188486 180.66440105 60.61242385 188.13943373 59 196 C59.886875 196.268125 60.77375 196.53625 61.6875 196.8125 C64.76877548 197.91710819 67.26221405 199.22849144 70 201 C69.75 204.375 69.75 204.375 69 208 C67.34375 209.3125 67.34375 209.3125 65 210 C61.984375 209.5390625 61.984375 209.5390625 58.75 208.625 C57.67234375 208.32851563 56.5946875 208.03203125 55.484375 207.7265625 C54.66453125 207.48679687 53.8446875 207.24703125 53 207 C52.7628125 207.70640625 52.525625 208.4128125 52.28125 209.140625 C50.77791846 212.49562099 48.84986394 214.92711151 46.5 217.75 C45.7059375 218.71421875 44.911875 219.6784375 44.09375 220.671875 C42 223 42 223 40 224 C40.28317926 225.60568666 40.57687791 227.20952047 40.875 228.8125 C41.03742188 229.70582031 41.19984375 230.59914063 41.3671875 231.51953125 C41.91188449 234.22727846 41.91188449 234.22727846 44 237 C44 238.32 44 239.64 44 241 C41.03 241.99 38.06 242.98 35 244 C33.99491199 242.21118264 32.99607264 240.41885304 32 238.625 C31.443125 237.62726563 30.88625 236.62953125 30.3125 235.6015625 C29 233 29 233 29 231 C28.10539062 231.2165625 27.21078125 231.433125 26.2890625 231.65625 C19.00155621 233.33439644 12.47332054 234.33969639 5 234 C4.34 239.28 3.68 244.56 3 250 C-0.3 250 -3.6 250 -7 250 C-7 244.06 -7 238.12 -7 232 C-8.98 231.814375 -8.98 231.814375 -11 231.625 C-15.47792832 231.13533747 -19.65743306 230.18433644 -24 229 C-25.98 232.63 -27.96 236.26 -30 240 C-36 239 -36 239 -39 237 C-38.52412884 230.97229862 -35.80277043 226.23321711 -33 221 C-33.82177734 220.67708984 -33.82177734 220.67708984 -34.66015625 220.34765625 C-37.7946596 218.54230791 -40.03353054 216.09112035 -42.4375 213.4375 C-42.92323486 212.90608398 -43.40896973 212.37466797 -43.90942383 211.82714844 C-47.68789699 207.58487549 -50.63090336 203.18321695 -53 198 C-56.35366763 198.54165766 -58.78361004 199.26966318 -61.625 201.125 C-62.73875 201.74375 -63.8525 202.3625 -65 203 C-68 202 -68 202 -69.75 199.1875 C-71.33879322 195.13607728 -71.33879322 195.13607728 -70 192 C-68.00390625 190.296875 -68.00390625 190.296875 -65.5625 188.75 C-64.35787109 187.96882813 -64.35787109 187.96882813 -63.12890625 187.171875 C-61 186 -61 186 -59 186 C-59.15855469 185.4121875 -59.31710938 184.824375 -59.48046875 184.21875 C-61.39571697 176.85403862 -63.06738721 169.43447286 -64.6875 162 C-64.91397217 161.00419922 -65.14044434 160.00839844 -65.3737793 158.98242188 C-66.89748325 151.85897469 -67.20053551 145.28431698 -67 138 C-72.61 138 -78.22 138 -84 138 C-84 134.37 -84 130.74 -84 127 C-75.585 126.505 -75.585 126.505 -67 126 C-67 123.36 -67 120.72 -67 118 C-66.75291997 115.03719349 -66.28679598 112.12207105 -65.8125 109.1875 C-65.68447998 108.38014404 -65.55645996 107.57278809 -65.42456055 106.7409668 C-63.90209252 97.66831805 -61.50536191 88.84303631 -59 80 C-64.94 76.535 -64.94 76.535 -71 73 C-69.875 66.25 -69.875 66.25 -68 63 C-64.80005798 63.4848397 -62.4148905 64.26689205 -59.4375 65.625 C-56.31285078 67.11060135 -56.31285078 67.11060135 -54.03515625 67.03515625 C-50.6944669 65.33595725 -49.57340337 62.05457139 -48 58.8125 C-47.33645467 57.48411335 -46.66981375 56.15726822 -46 54.83203125 C-45.67644531 54.18314941 -45.35289062 53.53426758 -45.01953125 52.86572266 C-44 51 -44 51 -41.6875 47.82421875 C-39.77363031 45.17775468 -39.77363031 45.17775468 -40.0234375 42.41015625 C-41.51876446 38.71968931 -44.00028101 36.14987719 -46.6015625 33.18359375 C-48 31 -48 31 -47.8203125 28.8359375 C-46.67152115 26.26483304 -45.48252529 25.31022168 -43 24 C-39.81664919 24.22775193 -38.35561068 24.67465406 -35.98046875 26.84765625 C-35.38878906 27.57855469 -34.79710937 28.30945313 -34.1875 29.0625 C-33.28064453 30.16271484 -33.28064453 30.16271484 -32.35546875 31.28515625 C-31.90816406 31.85105469 -31.46085937 32.41695313 -31 33 C-27.64227134 31.49826356 -25.07039961 29.53633598 -22.25 27.1875 C-18.00515441 23.72990322 -13.70661942 20.7891078 -9 18 C-9.33 12.39 -9.66 6.78 -10 1 C-4 0 -4 0 0 0 Z " fill="#1444D0" transform="translate(185,277)"/>
<path d="M0 0 C0.78755676 -0.00540298 1.57511353 -0.01080597 2.38653564 -0.01637268 C4.97983809 -0.02884238 7.57202687 -0.01238591 10.1652832 0.00561523 C11.96938638 0.00546025 13.77348988 0.00397139 15.57759094 0.00120544 C19.35282157 -0.00017759 23.12767182 0.01236718 26.90283203 0.03515625 C31.74878097 0.06360186 36.59410091 0.06078583 41.44009686 0.04806614 C45.1623729 0.04112353 48.88450266 0.04888092 52.60676003 0.06132317 C54.39418795 0.06584719 56.18163152 0.06616619 57.9690609 0.06225777 C60.46147466 0.05935784 62.95300962 0.07579085 65.4453125 0.09765625 C66.55885857 0.09090378 66.55885857 0.09090378 67.69490051 0.08401489 C69.74662781 0.11402893 69.74662781 0.11402893 73.02856445 0.50170898 C76.2634614 5.35405441 75.8125452 10.79804278 76.02856445 16.50170898 C76.06256348 17.35941895 76.0965625 18.21712891 76.1315918 19.10083008 C76.22894103 21.92198118 76.29010205 24.74186275 76.34106445 27.56420898 C76.37087402 28.48057129 76.40068359 29.39693359 76.43139648 30.34106445 C76.43896973 31.21005371 76.44654297 32.07904297 76.4543457 32.97436523 C76.47621948 34.13850952 76.47621948 34.13850952 76.49853516 35.32617188 C75.79428178 38.58622477 74.78465115 39.609687 72.02856445 41.50170898 C68.95469928 42.08979545 65.9318571 42.0622295 62.80981445 42.03295898 C61.9149231 42.03678589 61.02003174 42.04061279 60.09802246 42.04455566 C58.20848463 42.04727419 56.31890913 42.03991714 54.42944336 42.02319336 C51.53845255 42.00178222 48.64994679 42.02299632 45.7590332 42.04858398 C43.92178814 42.0459407 42.08454462 42.0408157 40.24731445 42.03295898 C38.95186707 42.04510437 38.95186707 42.04510437 37.63024902 42.05749512 C31.67274694 41.96448808 31.67274694 41.96448808 28.51782227 39.69799805 C26.414927 36.59674464 25.86177133 33.38131413 25.27856445 29.75170898 C25.15352539 29.05432617 25.02848633 28.35694336 24.8996582 27.63842773 C24.59517585 25.92864223 24.30992511 24.21545114 24.02856445 22.50170898 C21.0905145 22.42084522 18.15468371 22.36128069 15.21606445 22.31420898 C13.96599609 22.27650391 13.96599609 22.27650391 12.69067383 22.23803711 C11.88823242 22.22836914 11.08579102 22.21870117 10.2590332 22.20874023 C9.15144653 22.18517456 9.15144653 22.18517456 8.02148438 22.16113281 C5.43807979 22.60261871 4.61284839 23.44686331 3.02856445 25.50170898 C1.17978647 31.26554622 0.47400829 37.14161467 -0.33862305 43.12670898 C-1.10642666 48.60284053 -2.0488998 54.04993993 -2.97143555 59.50170898 C-4.06851112 65.99328045 -5.14370928 72.47837029 -6.03393555 79.00170898 C-6.67104068 83.66837123 -7.48108056 88.27341936 -8.3815918 92.89624023 C-9.82090735 100.43046022 -10.97874769 107.98545675 -12.0486145 115.57974243 C-13.68834865 127.19397988 -15.48119021 138.76464453 -17.53393555 150.31420898 C-19.40778703 160.88247178 -20.97221363 171.46032574 -22.37524414 182.10058594 C-23.94614594 193.79411422 -25.91410848 205.41326989 -27.95361328 217.03320312 C-29.26273505 224.59173901 -30.30735045 232.02909638 -30.58911133 239.71240234 C-31.46703856 246.11745894 -35.13644903 251.0037608 -40.03393555 255.00170898 C-41.00331055 255.49670898 -41.97268555 255.99170898 -42.97143555 256.50170898 C-43.75518555 256.91420898 -44.53893555 257.32670898 -45.34643555 257.75170898 C-48.98241017 258.79055888 -52.1952662 258.62971473 -55.97143555 258.50170898 C-56.19831055 259.34733398 -56.42518555 260.19295898 -56.65893555 261.06420898 C-60.32144491 270.6564954 -66.84483183 274.69368228 -75.97143555 278.87670898 C-84.5156903 280.65676206 -90.48906275 279.54672964 -98.19799805 275.34545898 C-103.23747918 271.99526871 -106.96409665 268.09074846 -109.16992188 262.42138672 C-110.6764134 259.24078702 -110.6764134 259.24078702 -113.78637695 258.71679688 C-115.47512939 258.68960571 -115.47512939 258.68960571 -117.19799805 258.66186523 C-118.45 258.62464355 -119.70200195 258.58742188 -120.99194336 258.54907227 C-122.96179199 258.52562744 -122.96179199 258.52562744 -124.97143555 258.50170898 C-127.54189938 258.39999531 -130.11221792 258.29453922 -132.68237305 258.18530273 C-135.23697283 258.10058386 -137.79166332 258.01855782 -140.34643555 257.93920898 C-141.67977694 257.8958364 -143.01311036 257.85221757 -144.34643555 257.80834961 C-147.55469943 257.70373231 -150.76302011 257.60155061 -153.97143555 257.50170898 C-154.1861853 258.66972046 -154.1861853 258.66972046 -154.40527344 259.86132812 C-155.59173013 265.39454467 -158.9109849 269.90214862 -163.34643555 273.34545898 C-170.23008541 277.62675341 -176.74741822 280.210676 -184.97143555 279.50170898 C-194.51685311 277.21147745 -201.20955712 272.41701672 -206.97143555 264.50170898 C-210.59480252 258.37770847 -210.99261039 251.43540033 -209.97143555 244.50170898 C-207.11285636 235.44393652 -202.00411868 229.46644182 -193.97143555 224.50170898 C-187.44144604 221.20417275 -178.4698794 221.27040865 -171.4597168 223.18920898 C-169.44717975 224.1381459 -167.75633111 225.1753187 -165.97143555 226.50170898 C-165.3475293 226.96061523 -164.72362305 227.41952148 -164.08081055 227.89233398 C-160.19916078 230.99113001 -157.38431005 234.15853487 -154.97143555 238.50170898 C-154.97143555 239.49170898 -154.97143555 240.48170898 -154.97143555 241.50170898 C-140.12143555 241.50170898 -125.27143555 241.50170898 -109.97143555 241.50170898 C-109.64143555 240.18170898 -109.31143555 238.86170898 -108.97143555 237.50170898 C-105.23097202 230.48833988 -98.61085187 224.86011077 -90.97143555 222.50170898 C-79.77446644 221.4825995 -72.65934987 222.93657543 -63.83862305 229.81811523 C-60.92632003 232.4440621 -59.00036341 235.14129721 -56.97143555 238.50170898 C-56.97143555 239.49170898 -56.97143555 240.48170898 -56.97143555 241.50170898 C-53.31826884 240.25194143 -52.19077719 239.83072145 -49.97143555 236.50170898 C-49.38848309 233.76474722 -48.89605923 231.07570329 -48.47143555 228.31420898 C-48.3410791 227.50322754 -48.21072266 226.69224609 -48.07641602 225.85668945 C-47.30399829 220.95705333 -46.66119893 216.05506868 -46.09643555 211.12670898 C-45.22304627 203.77568256 -43.93289893 196.5316557 -42.59643555 189.25170898 C-40.88908313 179.93944162 -39.37038263 170.6329042 -38.09643555 161.25170898 C-36.53139058 149.77635047 -34.57837076 138.3993775 -32.53393555 127.00170898 C-30.11583246 113.49174194 -27.91851043 99.97183302 -26.03393555 86.37670898 C-25.92638947 85.60963623 -25.81884338 84.84256348 -25.70803833 84.05224609 C-25.40624726 81.88766759 -25.11109412 79.72231509 -24.8190918 77.55639648 C-24.65417236 76.3342041 -24.48925293 75.11201172 -24.31933594 73.8527832 C-23.99258923 70.70546715 -23.9059925 67.66287965 -23.97143555 64.50170898 C-23.31143555 64.50170898 -22.65143555 64.50170898 -21.97143555 64.50170898 C-21.86549072 63.53338135 -21.7595459 62.56505371 -21.65039062 61.56738281 C-20.39464525 50.36058493 -18.85167832 39.20796072 -17.10449219 28.06738281 C-16.80405834 26.12666246 -16.51258208 24.18453697 -16.22949219 22.24121094 C-15.81356171 19.39091269 -15.37024827 16.5460853 -14.9206543 13.70092773 C-14.79961838 12.83433029 -14.67858246 11.96773285 -14.55387878 11.07487488 C-14.42056656 10.26915543 -14.28725433 9.46343597 -14.14990234 8.63330078 C-14.04268356 7.92956833 -13.93546478 7.22583588 -13.82499695 6.5007782 C-11.20246701 0.3587258 -5.96007859 -0.07825958 0 0 Z " fill="#12C7AC" transform="translate(850.971435546875,286.498291015625)"/>
<path d="M0 0 C1.03125 -0.02191406 2.0625 -0.04382813 3.125 -0.06640625 C6 0.5625 6 0.5625 8.14836216 2.66617775 C10.43004541 6.23517479 10.50048953 8.31624683 10.50120544 12.53256226 C10.50950704 13.56674252 10.50950704 13.56674252 10.51797634 14.62181532 C10.53156015 16.9258182 10.51662706 19.22873347 10.50170898 21.53271484 C10.50549308 23.18710286 10.51099387 24.84148771 10.51808167 26.49586487 C10.53204397 30.98569975 10.52086015 35.47515172 10.50437045 39.96496534 C10.49051559 44.66623196 10.49698071 49.36747644 10.50050354 54.0687561 C10.50320585 61.96582199 10.4897301 69.86273591 10.46655273 77.75976562 C10.43996128 86.88305296 10.43818998 96.00608591 10.4499411 105.1293987 C10.46073143 113.91106308 10.45452076 122.69263566 10.44038582 131.47429276 C10.43463505 135.20858562 10.4347016 138.94281111 10.43945122 142.67710495 C10.44423365 147.07830309 10.43406697 151.47922379 10.41249657 155.88036919 C10.40694507 157.49320604 10.40644833 159.10606965 10.41144943 160.71890831 C10.41743271 162.92573403 10.40484002 165.13172019 10.38768005 167.33847046 C10.38525016 168.57178793 10.38282026 169.8051054 10.38031673 171.07579613 C9.82357469 176.17994872 8.40020816 180.12339717 4.75 183.875 C-2.47873185 188.31081273 -9.99341946 187.86942524 -18.23828125 187.86328125 C-19.51422653 187.86756638 -20.79017181 187.8718515 -22.1047821 187.87626648 C-24.79875547 187.88199801 -27.49234426 187.88345975 -30.1862793 187.87817383 C-33.61220943 187.87239261 -37.03759655 187.88929124 -40.46343708 187.9125185 C-43.76338014 187.93093234 -47.06329617 187.92706764 -50.36328125 187.92578125 C-51.58026199 187.934991 -52.79724274 187.94420074 -54.05110168 187.95368958 C-70.61323738 187.86459356 -70.61323738 187.86459356 -76.5 182.125 C-80.24940409 175.71976802 -80.24940409 175.71976802 -80.25396729 171.31874084 C-80.26242676 170.05920845 -80.26242676 170.05920845 -80.27105713 168.77423096 C-80.26700867 167.86139343 -80.26296021 166.94855591 -80.25878906 166.00805664 C-80.2622937 165.04014694 -80.26579834 164.07223724 -80.26940918 163.07499695 C-80.27821448 159.87414384 -80.27238104 156.67351163 -80.265625 153.47265625 C-80.2669721 151.24832619 -80.26891301 149.02399641 -80.27142334 146.79966736 C-80.27437307 142.13668008 -80.27008216 137.4737694 -80.26074219 132.81079102 C-80.24935443 126.83414891 -80.25590387 120.85768656 -80.26788712 114.88105106 C-80.2751154 110.28713121 -80.2728132 105.69325395 -80.26763153 101.09933281 C-80.26629738 98.8957155 -80.26793456 96.69209432 -80.27259064 94.48848152 C-80.27767095 91.40766288 -80.26992395 88.3271349 -80.25878906 85.24633789 C-80.26283752 84.3355246 -80.26688599 83.4247113 -80.27105713 82.48629761 C-80.241772 78.11138731 -80.20148047 74.47277532 -78 70.5625 C-72.65518953 65.45007259 -69.41617918 64.43333439 -62.22167969 64.44897461 C-61.0607782 64.44905014 -59.89987671 64.44912567 -58.70379639 64.44920349 C-56.8317453 64.45694542 -56.8317453 64.45694542 -54.921875 64.46484375 C-53.64016418 64.4662587 -52.35845337 64.46767365 -51.03790283 64.46913147 C-47.6381636 64.47294099 -44.2384674 64.48275786 -40.83874512 64.49383545 C-37.366461 64.50408326 -33.8941699 64.5086363 -30.421875 64.51367188 C-23.61456571 64.52438159 -16.80728492 64.54143916 -10 64.5625 C-10.00888245 63.81969788 -10.01776489 63.07689575 -10.0269165 62.31158447 C-10.10709744 55.30800095 -10.16798186 48.30457665 -10.20724869 41.30066299 C-10.22811513 37.69991714 -10.25641421 34.09955084 -10.30175781 30.49902344 C-10.34525125 27.02362087 -10.36914421 23.54858312 -10.37950897 20.07292938 C-10.39048615 18.10304216 -10.421707 16.13330153 -10.45318604 14.16363525 C-10.45363922 12.36222076 -10.45363922 12.36222076 -10.45410156 10.52441406 C-10.46298401 9.46740295 -10.47186646 8.41039185 -10.48101807 7.3213501 C-9.43668017 1.33161309 -5.59255045 -0.00699069 0 0 Z " fill="#145DA3" transform="translate(525,550.4375)"/>
<path d="M0 0 C1.27499863 -0.01606293 2.54999725 -0.03212585 3.8636322 -0.04867554 C5.23793867 -0.06016185 6.61225271 -0.07077058 7.98657227 -0.08056641 C8.68728411 -0.08589008 9.38799595 -0.09121376 10.10994148 -0.09669876 C13.81498235 -0.12329734 17.51999097 -0.14271893 21.22509766 -0.15722656 C24.27553174 -0.17058209 27.32529948 -0.19848207 30.37548828 -0.23925781 C34.07948834 -0.28874742 37.78288331 -0.31336524 41.48719978 -0.32045364 C42.89015399 -0.3271322 44.29309646 -0.34226518 45.69585991 -0.36634445 C53.73043713 -0.49646596 60.23843307 -0.49841338 66.36547852 5.19287109 C70.65535981 10.7282018 70.53085292 16.76402731 70.56860352 23.52880859 C70.57430359 24.3263858 70.58000366 25.12396301 70.58587646 25.94570923 C70.59529446 27.62834357 70.60184768 29.31099609 70.60571289 30.99365234 C70.61542049 33.55257653 70.64647426 36.1106975 70.67797852 38.66943359 C70.6845095 40.31005386 70.6897596 41.95067983 70.69360352 43.59130859 C70.70595032 44.34882416 70.71829712 45.10633972 70.73101807 45.8868103 C70.70690247 51.70538579 69.47469921 56.13450109 66.11547852 61.00537109 C60.63384045 64.72505406 53.85827651 64.523642 47.49438477 64.60693359 C46.57205551 64.62629974 45.64972626 64.64566589 44.69944763 64.6656189 C41.77571641 64.7250323 38.85194499 64.77164618 35.92797852 64.81787109 C33.93642561 64.85608611 31.94488862 64.89513986 29.95336914 64.93505859 C25.09086928 65.03070213 20.22829213 65.1148733 15.36547852 65.19287109 C15.34082924 70.44392552 15.32264284 75.69494655 15.31054688 80.94604492 C15.30550633 82.7338113 15.29867397 84.52157354 15.29003906 86.30932617 C15.27796121 88.87338278 15.27224757 91.43738507 15.26782227 94.00146484 C15.26266098 94.80563339 15.25749969 95.60980194 15.25218201 96.43833923 C15.25198637 98.35688824 15.30345869 100.27532478 15.36547852 102.19287109 C16.53296851 103.58810965 16.53296851 103.58810965 19.78369141 103.30639648 C21.3018484 103.30623737 22.8200108 103.30054335 24.33813477 103.29052734 C25.53459877 103.28840492 25.53459877 103.28840492 26.75523376 103.28623962 C29.31285287 103.28062426 31.87038569 103.26806921 34.42797852 103.25537109 C36.15779496 103.25035807 37.88761278 103.24579482 39.61743164 103.24169922 C43.86681405 103.23064984 48.11613163 103.21337496 52.36547852 103.19287109 C52.31907227 102.37302734 52.27266602 101.55318359 52.22485352 100.70849609 C52.18875977 99.63083984 52.15266602 98.55318359 52.11547852 97.44287109 C52.06907227 96.37552734 52.02266602 95.30818359 51.97485352 94.20849609 C52.36547852 91.19287109 52.36547852 91.19287109 54.22875977 88.83764648 C56.79237638 86.86425925 58.15710827 86.62548029 61.36547852 86.63037109 C62.21110352 86.60845703 63.05672852 86.58654297 63.92797852 86.56396484 C66.36547852 87.19287109 66.36547852 87.19287109 68.64672852 89.18115234 C70.94829386 93.21412252 70.97437048 96.37553651 70.86547852 100.94287109 C70.85266846 101.74474854 70.8398584 102.54662598 70.82666016 103.37280273 C70.6356027 108.95088684 70.41518672 114.96046929 66.36547852 119.19287109 C61.40978454 121.67604151 57.77153918 122.57217643 52.1484375 122.59692383 C51.46454956 122.60378708 50.78066162 122.61065033 50.0760498 122.61772156 C47.83767357 122.6358762 45.60000559 122.63216979 43.36157227 122.62646484 C41.79411087 122.63103108 40.22665147 122.63633797 38.65919495 122.64234924 C35.38355341 122.65125724 32.108156 122.64888255 28.83251953 122.63891602 C24.64380688 122.62741024 20.45593526 122.64767341 16.26733303 122.67683315 C13.03386629 122.6952118 9.80060069 122.69489976 6.5670948 122.68919563 C5.02298869 122.68904272 3.47886868 122.69506209 1.93481255 122.70748711 C-0.22628207 122.72243359 -2.38582754 122.71169706 -4.546875 122.69458008 C-5.77374527 122.69441391 -7.00061554 122.69424774 -8.2646637 122.69407654 C-13.25755123 121.95147475 -16.20227827 119.83730724 -19.48426819 116.06907654 C-21.19873083 111.78206705 -21.06037677 107.75080343 -21.03857422 103.17358398 C-21.04543747 102.16812027 -21.05230072 101.16265656 -21.05937195 100.12672424 C-21.07765911 96.80618124 -21.07379959 93.48610985 -21.06811523 90.16552734 C-21.07267611 87.85534003 -21.0779814 85.54515407 -21.08399963 83.23497009 C-21.09293453 78.39381396 -21.0905032 73.55282275 -21.08056641 68.71166992 C-21.06907653 62.50968093 -21.08928713 56.30826128 -21.11848354 50.10634708 C-21.13683502 45.33565152 -21.13655513 40.56509265 -21.13084602 35.79437065 C-21.13069268 33.50783934 -21.13674771 31.22129885 -21.1491375 28.9348011 C-21.16402522 25.73668897 -21.15338585 22.53963199 -21.13623047 19.34155273 C-21.14589844 18.39850281 -21.15556641 17.45545288 -21.16552734 16.48382568 C-21.10282452 10.89781624 -20.43478605 7.58281473 -16.63452148 3.19287109 C-11.59425811 -0.16730449 -5.9233458 0.06831718 0 0 Z " fill="#135EA5" transform="translate(569.634521484375,614.80712890625)"/>
<path d="M0 0 C1.0750177 -0.00637985 2.1500354 -0.0127597 3.25762939 -0.01933289 C4.41494568 -0.02044571 5.57226196 -0.02155853 6.76464844 -0.02270508 C7.96079773 -0.02603348 9.15694702 -0.02936188 10.38934326 -0.03279114 C12.92117936 -0.03785431 15.45302213 -0.04019965 17.98486328 -0.04003906 C21.84516512 -0.04222002 25.70517862 -0.06036733 29.56542969 -0.0793457 C32.0276683 -0.0822809 34.48990826 -0.08426485 36.95214844 -0.08520508 C38.1013678 -0.09239059 39.25058716 -0.09957611 40.43463135 -0.10697937 C55.01487982 -0.0657354 55.01487982 -0.0657354 59.17584229 3.46028137 C63.90719005 8.78677279 63.7727696 13.69782102 63.78173828 20.50634766 C63.786819 21.34746094 63.79189972 22.18857422 63.7971344 23.05517578 C63.80782283 24.87924094 63.81644898 26.70331909 63.82325363 28.52740288 C63.83505754 31.41499019 63.85451327 34.30242896 63.87637329 37.18995667 C63.93794668 45.3990485 63.99206416 53.60812379 64.02539062 61.81738281 C64.0463315 66.84066396 64.08162682 71.86367189 64.12614822 76.88679695 C64.14030936 78.80010832 64.14903092 80.713468 64.15220261 82.62682915 C64.15710956 85.30310566 64.18026071 87.97865611 64.20751953 90.65478516 C64.2045134 91.44403885 64.20150726 92.23329254 64.19841003 93.04646301 C64.26675408 97.56325031 64.7627275 100.58263177 67.62402344 104.14526367 C70.03107978 105.09680758 70.03107978 105.09680758 72.68652344 105.33276367 C77.44775225 105.96899249 77.44775225 105.96899249 79.62402344 108.14526367 C79.92480469 110.38745117 79.92480469 110.38745117 79.93652344 113.02026367 C79.95328125 113.88393555 79.97003906 114.74760742 79.98730469 115.63745117 C79.55284874 118.63659866 78.70655233 119.97006956 76.62402344 122.14526367 C73.11867817 123.31371209 69.95746586 123.30057047 66.31030273 123.30639648 C65.19756485 123.31384384 65.19756485 123.31384384 64.06234741 123.32144165 C61.60763623 123.33604897 59.1529897 123.34286317 56.69824219 123.34838867 C54.99054462 123.35414167 53.28284707 123.35989939 51.57514954 123.36566162 C47.99321187 123.37616779 44.41129661 123.38201285 40.8293457 123.38549805 C36.24611193 123.39097941 31.66317573 123.41500131 27.08003521 123.44347 C23.55151004 123.46212181 20.02305615 123.46730335 16.49448586 123.46883392 C14.80523872 123.47185567 13.1159927 123.47986805 11.42679405 123.4930191 C9.05961043 123.51013171 6.69314863 123.50818683 4.32592773 123.50170898 C3.63220566 123.51092377 2.93848358 123.52013855 2.22373962 123.52963257 C-2.36813468 123.49039851 -5.47055307 122.5414201 -9.37597656 120.14526367 C-13.53222642 115.65202059 -14.49750322 112.42961397 -14.53710938 106.40795898 C-14.54671692 105.2295343 -14.55632446 104.05110962 -14.56622314 102.8369751 C-14.57047302 101.56199158 -14.5747229 100.28700806 -14.57910156 98.97338867 C-14.58480164 97.66247253 -14.59050171 96.3515564 -14.59637451 95.00091553 C-14.60687614 92.22350681 -14.61272377 89.44612695 -14.61621094 86.66870117 C-14.62168337 83.12357587 -14.64568757 79.57883701 -14.67418289 76.03383255 C-14.69738371 72.63869249 -14.69926426 69.24360384 -14.70410156 65.84838867 C-14.71644836 64.58150208 -14.72879517 63.31461548 -14.74151611 62.00933838 C-14.71278611 50.60738161 -14.71278611 50.60738161 -11.37597656 45.14526367 C-8.48199897 42.51069092 -6.65576012 41.77323757 -2.76269531 41.82055664 C-1.85495361 41.82401093 -0.94721191 41.82746521 -0.01196289 41.83102417 C0.9610376 41.84964508 1.93403809 41.86826599 2.93652344 41.88745117 C3.94239502 41.89406769 4.9482666 41.9006842 5.98461914 41.90750122 C9.19806525 41.93090222 12.41082292 41.97460797 15.62402344 42.02026367 C18.83714115 42.05534557 22.05021938 42.08614712 25.26342773 42.11160278 C27.26235275 42.12855402 29.26123703 42.15167486 31.26000977 42.18161011 C32.62162231 42.19624802 32.62162231 42.19624802 34.01074219 42.21118164 C34.80697998 42.22245087 35.60321777 42.23372009 36.42358398 42.24533081 C38.68013017 42.14271216 40.51190211 41.95881694 42.62402344 41.14526367 C43.78411591 37.66498625 43.82818864 34.81204724 43.87402344 31.14526367 C43.91269531 29.28901367 43.91269531 29.28901367 43.95214844 27.39526367 C43.91043433 24.23949226 43.91043433 24.23949226 42.39523315 22.46420288 C40.10787341 20.76091025 38.79238171 20.77866082 35.95654297 20.79223633 C35.01191193 20.78858063 34.06728088 20.78492493 33.09402466 20.78115845 C32.07525238 20.7904538 31.0564801 20.79974915 30.00683594 20.80932617 C27.85188501 20.79681338 25.69693708 20.78377624 23.54199219 20.77026367 C20.14263352 20.76633207 16.74356894 20.77028714 13.34423828 20.78491211 C10.06465635 20.79347871 6.78630926 20.77180324 3.50683594 20.74682617 C2.49211212 20.76016998 1.47738831 20.77351379 0.43191528 20.78726196 C-4.3272792 20.73741454 -6.62345687 20.71108553 -10.51904297 17.78198242 C-12.66226806 14.73874932 -12.99784253 13.20670929 -12.87597656 9.52026367 C-12.86566406 8.57924805 -12.85535156 7.63823242 -12.84472656 6.66870117 C-12.30366475 3.75598506 -11.76641384 2.85116664 -9.37597656 1.14526367 C-6.21816027 0.13346878 -3.3037815 0.01333961 0 0 Z " fill="#135EA5" transform="translate(356.3759765625,614.854736328125)"/>
<path d="M0 0 C0.87045456 -0.00571014 1.74090912 -0.01142029 2.63774109 -0.01730347 C3.58483948 -0.01842133 4.53193787 -0.01953918 5.50773621 -0.02069092 C6.5114476 -0.02565582 7.515159 -0.03062073 8.54928589 -0.03573608 C11.87032252 -0.05034303 15.19131139 -0.05715721 18.51237488 -0.06268311 C20.82159425 -0.06843565 23.13081361 -0.07419338 25.44003296 -0.07995605 C30.28291547 -0.09046179 35.1257814 -0.0963073 39.96867371 -0.09979248 C46.16935332 -0.10527702 52.36981333 -0.12930621 58.57042408 -0.15776443 C63.34113197 -0.17640221 68.11178708 -0.18159703 72.88252831 -0.18312836 C75.16823719 -0.1861527 77.45394519 -0.19417382 79.7396183 -0.20731354 C82.9398373 -0.22439786 86.13952115 -0.22248776 89.33976746 -0.21600342 C90.751306 -0.22982559 90.751306 -0.22982559 92.19136047 -0.243927 C98.48219432 -0.20406575 103.81494344 0.41196132 108.53044128 5.0022583 C109.85720308 7.61109974 110.00534831 9.42919243 110.01628113 12.35137939 C110.02014832 13.34911377 110.0240155 14.34684814 110.02799988 15.37481689 C110.01639832 16.41122314 110.00479675 17.44762939 109.99284363 18.51544189 C110.00444519 19.54411377 110.01604675 20.57278564 110.02799988 21.63262939 C110.00139508 28.5144034 109.27661124 33.15939942 104.55534363 38.45294189 C96.6799394 42.97711028 85.2700236 41.25954077 76.49284363 41.20294189 C75.1412828 41.19791328 73.78972014 41.1933528 72.43815613 41.18927002 C69.16467098 41.177579 65.89128177 41.16119219 62.61784363 41.14044189 C62.62245259 41.89343158 62.62706156 42.64642126 62.63181019 43.42222881 C62.74221772 61.74163444 62.82496526 80.06097368 62.87690449 98.38064098 C62.90268938 107.23990512 62.93784522 116.09894722 62.99504089 124.95806885 C63.0448673 132.6794324 63.07713257 140.40063516 63.0882861 148.12215501 C63.09480623 152.21096947 63.11013572 156.2993239 63.14649391 160.38799095 C63.18044173 164.23679568 63.19089931 168.08495107 63.18338203 171.9338913 C63.18475716 173.34603975 63.19469774 174.75821 63.213871 176.17022896 C63.36891586 188.17792579 63.36891586 188.17792579 60.27694702 191.48878479 C57.0197831 193.51191708 55.11028243 193.66200447 51.30534363 193.45294189 C50.23671082 193.40782471 49.168078 193.36270752 48.06706238 193.31622314 C47.25882019 193.25821533 46.450578 193.20020752 45.61784363 193.14044189 C40.31946564 186.3351598 41.08139005 178.87766151 41.16374207 170.65826416 C41.16487135 169.08089731 41.16423511 167.50352835 41.16197205 165.92616272 C41.16082711 161.65793269 41.18430049 157.39015476 41.21226788 153.12202954 C41.23731839 148.65642432 41.2396264 144.19080808 41.24436951 139.72514343 C41.25678858 131.27502709 41.28959568 122.82511841 41.32976747 114.3750934 C41.37451848 104.75241074 41.39648059 95.12971803 41.41654921 85.50695717 C41.45832928 65.71800296 41.52866051 45.92923553 41.61784363 26.14044189 C41.04012711 26.14710373 40.46241058 26.15376556 39.8671875 26.16062927 C33.84882681 26.22705187 27.83057043 26.27227124 21.81193542 26.30523682 C19.56644968 26.32031372 17.32099334 26.34077842 15.0756073 26.36676025 C11.84612264 26.40319107 8.61702769 26.42017944 5.38737488 26.43341064 C4.38511368 26.4488945 3.38285248 26.46437836 2.35021973 26.48033142 C-6.37556126 26.48243349 -6.37556126 26.48243349 -10.38215637 23.14044189 C-12.87932237 19.75034987 -12.7136123 16.2510019 -12.75715637 12.14044189 C-12.79969543 10.31512939 -12.79969543 10.31512939 -12.84309387 8.45294189 C-12.38215637 5.14044189 -12.38215637 5.14044189 -10.60871887 2.76544189 C-7.20931298 0.28447198 -4.13513359 0.01631052 0 0 Z " fill="#165FA6" transform="translate(145.3821563720703,543.8595581054688)"/>
<path d="M0 0 C1.16163162 -0.01283524 2.32326324 -0.02567047 3.52009583 -0.03889465 C4.77634262 -0.04628159 6.03258942 -0.05366852 7.3269043 -0.0612793 C8.61799606 -0.06935104 9.90908783 -0.07742279 11.23930359 -0.08573914 C13.97382475 -0.10075191 16.70832006 -0.11059662 19.44287109 -0.11816406 C22.93664758 -0.12922096 26.42978585 -0.16361777 29.92333698 -0.20333576 C33.26616674 -0.23584834 36.60892867 -0.24028438 39.9519043 -0.2487793 C41.2020784 -0.26628738 42.4522525 -0.28379547 43.74031067 -0.30183411 C54.88299592 -0.27399788 54.88299592 -0.27399788 59.33862305 4.17700195 C63.47160694 10.52745811 62.81712394 16.9740238 62.77612305 24.30200195 C62.79610352 25.57688477 62.81608398 26.85176758 62.83666992 28.1652832 C62.83570313 30.00026367 62.83570313 30.00026367 62.8347168 31.87231445 C62.83656982 32.98622559 62.83842285 34.10013672 62.84033203 35.24780273 C62.22802924 38.82269757 61.18373646 39.99490332 58.33862305 42.17700195 C55.6472168 42.70825195 55.6472168 42.70825195 52.77612305 42.67700195 C51.82608398 42.68731445 50.87604492 42.69762695 49.8972168 42.70825195 C47.33862305 42.17700195 47.33862305 42.17700195 45.5378418 40.59106445 C43.93308658 37.36064516 43.85614596 34.64507973 43.71362305 31.05200195 C43.68190721 26.45023197 43.68190721 26.45023197 42.33862305 22.17700195 C36.51790682 22.15235557 30.6972207 22.13416765 24.87646484 22.12207031 C22.89468863 22.11702928 20.91291616 22.11019657 18.93115234 22.1015625 C16.08910196 22.0894868 13.24710057 22.0837715 10.4050293 22.0793457 C9.51336563 22.07418442 8.62170197 22.06902313 7.70301819 22.06370544 C5.58121703 22.06351019 3.45951525 22.11490165 1.33862305 22.17700195 C-0.51851752 24.03414252 0.20813624 27.10207244 0.20581055 29.58325195 C0.20452148 30.88391602 0.20323242 32.18458008 0.2019043 33.5246582 C0.20399902 34.20544434 0.20609375 34.88623047 0.20825195 35.58764648 C0.21360064 37.6682871 0.20830625 39.74871184 0.2019043 41.8293457 C0.20319336 43.13000977 0.20448242 44.43067383 0.20581055 45.77075195 C0.20693848 46.9740918 0.20806641 48.17743164 0.20922852 49.41723633 C0.02406328 52.08684678 0.02406328 52.08684678 1.33862305 53.17700195 C2.99443 53.28430729 4.65472425 53.3232386 6.31396484 53.3347168 C7.37564377 53.34497894 8.43732269 53.35524109 9.53117371 53.36581421 C11.26697441 53.3767662 11.26697441 53.3767662 13.0378418 53.38793945 C15.46818698 53.41601632 17.89852543 53.44468083 20.32885742 53.47387695 C24.17577876 53.51510711 28.02257556 53.55197762 31.86962891 53.57836914 C35.57180068 53.60599551 39.2733933 53.65188056 42.9753418 53.70043945 C44.12242111 53.70369232 45.26950043 53.70694519 46.45133972 53.71029663 C53.03489909 53.81152394 57.63477427 54.26826203 62.96528625 58.45446777 C64.85337005 60.82263332 64.7191488 62.38715508 64.72680664 65.39526367 C64.73626312 66.46001923 64.7457196 67.52477478 64.75546265 68.62179565 C64.74938995 69.77181061 64.74331726 70.92182556 64.73706055 72.10668945 C64.73993073 73.28917267 64.7428009 74.47165588 64.74575806 75.68997192 C64.74780112 78.1933032 64.74225444 80.69665036 64.72973633 83.19995117 C64.71371548 87.02990545 64.72956317 90.85879978 64.7487793 94.6887207 C64.74679635 97.11971262 64.74295162 99.55070387 64.73706055 101.98168945 C64.74313324 103.12765594 64.74920593 104.27362244 64.75546265 105.45431519 C64.74127792 107.060905 64.74127792 107.060905 64.72680664 108.69995117 C64.72441986 109.6391037 64.72203308 110.57825623 64.71957397 111.54586792 C64.25738079 114.73812215 63.25288209 116.5952862 61.33862305 119.17700195 C54.29378844 122.97173491 47.09683757 122.6606235 39.2409668 122.6809082 C37.87911169 122.69056773 36.51725961 122.70066153 35.15541077 122.71116638 C32.31365745 122.72904017 29.47217657 122.73469604 26.63037109 122.73291016 C23.00300234 122.73260463 19.37738666 122.77366546 15.75043392 122.82522678 C12.94238875 122.85869538 10.13476414 122.86466478 7.32653999 122.86308098 C5.34402008 122.86830142 3.36163142 122.90073324 1.37937927 122.93373108 C-8.65741436 122.85748141 -8.65741436 122.85748141 -12.94555664 119.30541992 C-18.2996711 113.82937461 -18.00029812 107.33804947 -17.97387695 100.11450195 C-17.98999023 99.22956055 -18.00610352 98.34461914 -18.02270508 97.43286133 C-18.02636681 92.55176974 -17.90772429 89.10263365 -14.66137695 85.17700195 C-11.41568943 83.55415819 -8.16899925 83.63943532 -4.66137695 84.17700195 C-1.72387695 85.80200195 -1.72387695 85.80200195 0.33862305 89.17700195 C1.04671195 93.84299077 1.26843558 98.46168011 1.33862305 103.17700195 C5.65110914 103.20586732 9.96357066 103.2237545 14.27612305 103.23950195 C15.50782227 103.24788086 16.73952148 103.25625977 18.00854492 103.26489258 C19.76328125 103.26972656 19.76328125 103.26972656 21.5534668 103.2746582 C22.63748779 103.27989502 23.72150879 103.28513184 24.83837891 103.29052734 C27.27912253 103.46127092 27.27912253 103.46127092 28.33862305 102.17700195 C28.42620308 100.17735213 28.44558881 98.17464086 28.4362793 96.1730957 C28.43305664 94.9581543 28.42983398 93.74321289 28.42651367 92.49145508 C28.41813477 91.21206055 28.40975586 89.93266602 28.40112305 88.61450195 C28.39661133 87.33124023 28.39209961 86.04797852 28.38745117 84.72583008 C28.3756185 81.54284173 28.35913373 78.35994433 28.33862305 75.17700195 C23.72473652 74.44735728 19.26156401 74.03880436 14.5925293 73.96606445 C13.3427832 73.93770508 12.09303711 73.9093457 10.80541992 73.88012695 C8.20660479 73.82812465 5.60762379 73.78382936 3.00854492 73.74731445 C-12.57599114 73.36191634 -12.57599114 73.36191634 -17.59887695 68.17700195 C-19.38914378 64.80708793 -19.776904 62.19762412 -19.71484375 58.44946289 C-19.6943824 57.01216827 -19.6943824 57.01216827 -19.67350769 55.5458374 C-19.65274673 54.51146545 -19.63198578 53.47709351 -19.6105957 52.41137695 C-19.59172806 51.34461731 -19.57286041 50.27785767 -19.55342102 49.17877197 C-19.51151973 46.91917725 -19.46678043 44.65963366 -19.41943359 42.40014648 C-19.34944112 38.95477312 -19.29496224 35.50938448 -19.24145508 32.0637207 C-19.19878673 29.86708743 -19.15519667 27.67047183 -19.1105957 25.47387695 C-19.09590744 24.44760193 -19.08121918 23.4213269 -19.06608582 22.36395264 C-18.75792209 9.41153626 -18.75792209 9.41153626 -14.8215332 5.21606445 C-14.12930664 4.74942383 -13.43708008 4.2827832 -12.72387695 3.80200195 C-12.03422852 3.31989258 -11.34458008 2.8377832 -10.6340332 2.34106445 C-7.04130054 0.22099647 -4.08512429 0.03929647 0 0 Z " fill="#125EA5" transform="translate(756.661376953125,614.822998046875)"/>
<path d="M0 0 C1.796875 1.109375 1.796875 1.109375 3.5 2.375 C4.12390625 2.83390625 4.7478125 3.2928125 5.390625 3.765625 C9.27227476 6.86442103 12.08712549 10.03182589 14.5 14.375 C14.5 15.365 14.5 16.355 14.5 17.375 C29.35 17.375 44.2 17.375 59.5 17.375 C59.83 16.055 60.16 14.735 60.5 13.375 C64.24046352 6.3616309 70.86058368 0.73340179 78.5 -1.625 C89.68528472 -2.64304601 96.8473961 -1.20776586 105.640625 5.7109375 C110.73068241 10.26632501 113.85526651 15.47190519 114.5 22.375 C114.78792298 31.64390508 113.77100758 39.25124035 107.5 46.375 C100.62884962 52.34605503 92.40860159 56.17347509 83.21484375 55.84765625 C74.92976925 54.40521882 68.1628202 49.92500941 62.90234375 43.5 C61.5 41.375 61.5 41.375 60.30151367 38.29467773 C58.79502214 35.11407804 58.79502214 35.11407804 55.68505859 34.59008789 C53.99630615 34.56289673 53.99630615 34.56289673 52.2734375 34.53515625 C51.02143555 34.49793457 49.76943359 34.46071289 48.47949219 34.42236328 C47.16625977 34.4067334 45.85302734 34.39110352 44.5 34.375 C41.92953616 34.27328632 39.35921763 34.16783023 36.7890625 34.05859375 C34.23446271 33.97387488 31.67977222 33.89184883 29.125 33.8125 C27.7916586 33.76912742 26.45832519 33.72550859 25.125 33.68164062 C21.91673612 33.57702332 18.70841543 33.47484162 15.5 33.375 C15.28525024 34.54301147 15.28525024 34.54301147 15.06616211 35.73461914 C13.87970541 41.26783569 10.56045064 45.77543963 6.125 49.21875 C-0.75864986 53.50004442 -7.27598268 56.08396701 -15.5 55.375 C-25.04541756 53.08476847 -31.73812158 48.29030773 -37.5 40.375 C-41.12336697 34.25099949 -41.52117484 27.30869135 -40.5 20.375 C-37.64142082 11.31722753 -32.53268313 5.33973284 -24.5 0.375 C-17.67217964 -3.07293586 -6.99014365 -3.295942 0 0 Z " fill="#1745D4" transform="translate(681.5,510.625)"/>
<path d="M0 0 C1.08147308 -0.01606293 2.16294617 -0.03212585 3.27719116 -0.04867554 C8.20578261 -0.09325173 13.13424245 -0.13416592 18.06298828 -0.15722656 C20.66236308 -0.17380587 23.26169194 -0.20112133 25.86083984 -0.23925781 C29.61270749 -0.29399833 33.36350957 -0.31589497 37.11572266 -0.33056641 C38.27526459 -0.35323578 39.43480652 -0.37590515 40.62948608 -0.39926147 C49.62353231 -0.37569658 49.62353231 -0.37569658 53.30957031 2.53808594 C57.87212896 7.84431725 56.88500267 14.37393075 56.94238281 21.0168457 C56.95896526 22.42424021 56.98628641 23.83154971 57.02441406 25.23852539 C57.07924148 27.2745295 57.10105665 29.3085717 57.11572266 31.34521484 C57.14545166 33.17040649 57.14545166 33.17040649 57.17578125 35.0324707 C56.59228516 38.19287109 56.59228516 38.19287109 54.18847656 40.58544922 C51.696695 42.12822614 50.46964611 42.76117222 47.59228516 42.75537109 C46.95291016 42.77728516 46.31353516 42.79919922 45.65478516 42.82177734 C43.59228516 42.19287109 43.59228516 42.19287109 38.59228516 37.19287109 C38.26228516 31.91287109 37.93228516 26.63287109 37.59228516 21.19287109 C20.26728516 21.68787109 20.26728516 21.68787109 2.59228516 22.19287109 C2.48916016 25.84349609 2.38603516 29.49412109 2.27978516 33.25537109 C2.23426514 34.39240479 2.18874512 35.52943848 2.1418457 36.70092773 C2.06289136 42.49515784 2.40609398 46.34607627 6.2355957 50.83520508 C8.57033016 53.1716201 11.02186294 55.20157306 13.62744141 57.22412109 C18.76540343 62.37229775 20.05037379 66.92386847 20.12242126 73.99794006 C20.11118729 74.97105637 20.09995331 75.94417267 20.08837891 76.94677734 C20.08983414 77.96585678 20.09128937 78.98493622 20.0927887 80.03489685 C20.09113484 82.18060172 20.07963145 84.32631908 20.05883789 86.47192383 C20.02984541 89.74856102 20.03824819 93.02358215 20.05126953 96.30029297 C20.04503251 98.39079559 20.03664186 100.48129313 20.02587891 102.57177734 C20.02881454 103.54691788 20.03175018 104.52205841 20.03477478 105.52674866 C19.94834278 111.78165971 19.38271672 116.4402611 14.71899414 121.04077148 C10.65636079 123.24161717 6.17183397 122.66261479 1.65478516 122.63037109 C0.66542969 122.65035156 -0.32392578 122.67033203 -1.34326172 122.69091797 C-5.71738627 122.68797639 -8.60889909 122.63959736 -12.47412109 120.47802734 C-16.89390687 115.25464415 -16.69568632 110.08805664 -16.66650391 103.55664062 C-16.67000854 102.59179749 -16.67351318 101.62695435 -16.67712402 100.63287354 C-16.68591786 97.4470701 -16.68009946 94.26148925 -16.67333984 91.07568359 C-16.67468739 88.85757403 -16.67662867 86.63946475 -16.67913818 84.4213562 C-16.68208645 79.77273751 -16.6778021 75.12419569 -16.66845703 70.47558594 C-16.65707604 64.52495243 -16.66361535 58.5744996 -16.67560196 52.62387276 C-16.68283988 48.04274136 -16.68052351 43.46165257 -16.67534637 38.88051987 C-16.67401454 36.68692885 -16.67564125 34.49333393 -16.68030548 32.29974747 C-16.68540091 29.22902484 -16.67761737 26.15859177 -16.66650391 23.08789062 C-16.67055237 22.18583893 -16.67460083 21.28378723 -16.67877197 20.35440063 C-16.6354584 13.87376225 -16.30677363 8.49173173 -12.03271484 3.31787109 C-8.12135515 0.15153229 -4.93866081 0.06684972 0 0 Z " fill="#155EA5" transform="translate(669.40771484375,614.80712890625)"/>
<path d="M0 0 C1.17823837 -0.00761353 2.35647675 -0.01522705 3.57041931 -0.02307129 C6.05579513 -0.03385539 8.5412162 -0.0367323 11.02661133 -0.03222656 C14.83035493 -0.03125243 18.63209335 -0.07293557 22.43554688 -0.1171875 C24.85286038 -0.12239328 27.27018089 -0.12508271 29.6875 -0.125 C30.82405533 -0.14139526 31.96061066 -0.15779053 33.13160706 -0.17468262 C40.99092546 -0.10577753 40.99092546 -0.10577753 44.90795898 2.75585938 C49.61052604 9.58032393 49.14411469 15.27260253 49.15234375 23.46875 C49.17683594 24.75265625 49.20132813 26.0365625 49.2265625 27.359375 C49.23042969 28.59171875 49.23429687 29.8240625 49.23828125 31.09375 C49.24649902 32.22039063 49.2547168 33.34703125 49.26318359 34.5078125 C48.67086851 38.11766038 47.65831126 39.2813185 44.77734375 41.46875 C41.8671875 42 41.8671875 42 38.71484375 41.96875 C37.67199219 41.9790625 36.62914062 41.989375 35.5546875 42 C32.77734375 41.46875 32.77734375 41.46875 29.77734375 37.46875 C29.28234375 30.04375 29.28234375 30.04375 28.77734375 22.46875 C17.88734375 22.46875 6.99734375 22.46875 -4.22265625 22.46875 C-4.11953125 25.975 -4.01640625 29.48125 -3.91015625 33.09375 C-3.88526123 34.18768066 -3.86036621 35.28161133 -3.8347168 36.40869141 C-3.55876008 43.72859444 -2.35174262 48.8633861 3.15234375 54.03125 C3.76078125 54.61648438 4.36921875 55.20171875 4.99609375 55.8046875 C5.58390625 56.35382812 6.17171875 56.90296875 6.77734375 57.46875 C10.88989107 61.31308771 12.57405737 63.22883511 12.92451477 68.8143158 C12.93928108 70.11073753 12.93928108 70.11073753 12.9543457 71.43334961 C12.97359856 72.91024513 12.97359856 72.91024513 12.99324036 74.41697693 C13.00062729 75.47433548 13.00801422 76.53169403 13.015625 77.62109375 C13.02369675 78.71337784 13.03176849 79.80566193 13.04008484 80.93104553 C13.05390563 83.24006572 13.06463673 85.54910617 13.07250977 87.8581543 C13.08976217 91.38955137 13.13367192 94.92002166 13.17773438 98.45117188 C13.18785829 100.69530562 13.19637533 102.93944732 13.203125 105.18359375 C13.22063309 106.23892807 13.23814117 107.29426239 13.25617981 108.38157654 C13.23443143 115.7244049 13.23443143 115.7244049 10.85864258 119.59326172 C6.30371215 123.69777498 2.41116608 123.80706109 -3.59765625 123.78125 C-4.34015625 123.79736328 -5.08265625 123.81347656 -5.84765625 123.83007812 C-10.69575562 123.8343609 -14.0553855 123.19161275 -18.22265625 120.46875 C-21.58715607 117.03036849 -21.61312673 114.23898447 -21.6550293 109.5300293 C-21.66522095 108.8379689 -21.6754126 108.14590851 -21.68591309 107.43287659 C-21.71615936 105.13615843 -21.72535115 102.83986067 -21.734375 100.54296875 C-21.75126789 98.91899807 -21.76942411 97.29504009 -21.78877258 95.6710968 C-21.83640075 91.37088148 -21.86605272 87.07071687 -21.89221191 82.77032471 C-21.9214021 78.51799039 -21.96842298 74.26586009 -22.01367188 70.01367188 C-22.09094411 62.55286278 -22.13866591 55.09223761 -22.17272758 47.63111687 C-22.19762525 42.92708839 -22.25384117 38.22491948 -22.34131527 33.52164364 C-22.39281173 30.64280919 -22.42906495 27.76389746 -22.46274757 24.88480568 C-22.49132362 22.92260058 -22.54047007 20.96072869 -22.59025574 18.99894714 C-22.68219514 9.38036994 -22.68219514 9.38036994 -20.58081055 5.8190918 C-14.43463408 -0.30672256 -8.23821734 0.00146255 0 0 Z " fill="#125DA3" transform="translate(284.22265625,614.53125)"/>
<path d="M0 0 C1.86011719 0.00773438 1.86011719 0.00773438 3.7578125 0.015625 C5.05460937 0.03625 6.35140625 0.056875 7.6875 0.078125 C9.63269531 0.08585938 9.63269531 0.08585938 11.6171875 0.09375 C21.22404717 0.17364072 21.22404717 0.17364072 24.6875 1.328125 C26.94908405 5.38755913 26.94604876 9.13951095 26.9621582 13.71704102 C26.96726913 14.44286377 26.97238007 15.16868652 26.97764587 15.91650391 C26.99149627 18.30509789 26.99058905 20.69340199 26.98828125 23.08203125 C26.99216974 24.74682217 26.99650473 26.4116121 27.00126648 28.07640076 C27.00871818 31.56065086 27.00844435 35.04479959 27.00317383 38.52905273 C26.99737039 42.99363025 27.01433616 47.4577941 27.0375185 51.9223032 C27.05224713 55.35811283 27.05312892 58.79382252 27.05000877 62.22965813 C27.05052209 63.87589273 27.05576181 65.52213292 27.06582069 67.16833687 C27.07815575 69.46870019 27.07141251 71.7682532 27.05981445 74.06860352 C27.06044388 75.37700699 27.0610733 76.68541046 27.0617218 78.03346252 C26.66594942 81.51785713 26.18395114 82.91485304 23.6875 85.328125 C18.38839841 87.0944922 12.73345761 86.55523147 7.1875 86.578125 C5.93839844 86.59875 4.68929688 86.619375 3.40234375 86.640625 C1.60990234 86.64835938 1.60990234 86.64835938 -0.21875 86.65625 C-1.31509766 86.6655957 -2.41144531 86.67494141 -3.54101562 86.68457031 C-6.3125 86.328125 -6.3125 86.328125 -7.9614563 85.28314209 C-10.03242713 82.28636015 -9.72982422 79.20669318 -9.70068359 75.69140625 C-9.70594055 74.9155014 -9.71119751 74.13959656 -9.71661377 73.34017944 C-9.72982584 70.77345698 -9.72107166 68.20735386 -9.7109375 65.640625 C-9.71295789 63.8584786 -9.71586904 62.07633301 -9.71963501 60.29418945 C-9.72405999 56.55835095 -9.71762176 52.82272757 -9.70361328 49.08691406 C-9.68652124 44.29483416 -9.6963615 39.5032583 -9.71433067 34.7111969 C-9.72516385 31.03092644 -9.72172433 27.35077575 -9.7139473 23.67050171 C-9.71194399 21.90343161 -9.71440912 20.13635068 -9.72138596 18.36929321 C-9.72899285 15.90084976 -9.71740753 13.43322605 -9.70068359 10.96484375 C-9.70675629 10.23228363 -9.71282898 9.49972351 -9.71908569 8.7449646 C-9.68242537 5.82876656 -9.64807457 3.81578642 -7.9671936 1.37310791 C-5.35810936 -0.27459801 -3.05098699 -0.02505057 0 0 Z " fill="#FAFCFD" transform="translate(489.3125,633.671875)"/>
<path d="M0 0 C6.00177074 -0.62518445 10.29423122 -0.14991764 15.28125 3.40234375 C27.68122168 14.92868106 28.39370294 45.64550948 29.12988281 61.86083984 C29.22623353 64.84527899 29.2802119 67.82671354 29.3125 70.8125 C29.33014404 71.74980957 29.34778809 72.68711914 29.3659668 73.65283203 C29.35985346 79.75172078 28.53457449 83.10151934 24.44921875 87.7734375 C16.03917751 95.41892954 6.36684472 100.28059987 -5 101 C-5.26128368 87.04343196 -4.87755441 73.20814482 -3.9234314 59.2828064 C-3.16018979 48.13239916 -2.64811495 37.00183092 -2.34204102 25.82739258 C-1.75083451 5.25250353 -1.75083451 5.25250353 0 0 Z " fill="#F8FAFC" transform="translate(313,319)"/>
<path d="M0 0 C8.05692012 4.83415207 14.04843276 9.49480305 17.5 18.4375 C19.08743761 26.45250361 18.5533633 35.15117637 14.625 42.375 C9.86524212 49.30967118 2.30439873 53.98744645 -5.875 55.875 C-14.3118422 57.29307704 -20.87037531 54.51840424 -27.875 49.875 C-30.65097082 47.45287825 -32.80405521 44.91507773 -34.875 41.875 C-35.30683594 41.24722656 -35.73867188 40.61945312 -36.18359375 39.97265625 C-39.82816404 33.80589199 -39.83250435 27.26987608 -38.33203125 20.3828125 C-35.61667065 11.4716291 -30.59911805 5.92889174 -22.875 0.875 C-16.36954582 -2.39390981 -6.81494886 -2.66603324 0 0 Z " fill="#1946D6" transform="translate(777.875,510.125)"/>
<path d="M0 0 C7.65374424 -0.07586651 15.30739207 -0.12852217 22.96142578 -0.16479492 C25.56693139 -0.17991108 28.17241144 -0.20040432 30.77783203 -0.22631836 C34.51601456 -0.26257688 38.25386165 -0.27969798 41.9921875 -0.29296875 C43.16304901 -0.30845261 44.33391052 -0.32393646 45.54025269 -0.33988953 C46.62122223 -0.34011612 47.70219177 -0.34034271 48.81591797 -0.34057617 C50.24821243 -0.35056892 50.24821243 -0.35056892 51.70944214 -0.36076355 C52.46532623 -0.24171158 53.22121033 -0.12265961 54 0 C57.23489695 4.85234543 56.78398075 10.2963338 57 16 C57.03399902 16.85770996 57.06799805 17.71541992 57.10302734 18.59912109 C57.20037658 21.4202722 57.2615376 24.24015376 57.3125 27.0625 C57.34230957 27.9788623 57.37211914 28.89522461 57.40283203 29.83935547 C57.41040527 30.70834473 57.41797852 31.57733398 57.42578125 32.47265625 C57.44036377 33.24875244 57.45494629 34.02484863 57.4699707 34.82446289 C56.76571733 38.08451578 55.7560867 39.10797802 53 41 C49.92613483 41.58808647 46.90329264 41.56052052 43.78125 41.53125 C42.88635864 41.5350769 41.99146729 41.53890381 41.06945801 41.54284668 C39.17992018 41.5455652 37.29034468 41.53820816 35.40087891 41.52148438 C32.5098881 41.50007323 29.62138233 41.52128734 26.73046875 41.546875 C24.89322369 41.54423171 23.05598017 41.53910671 21.21875 41.53125 C19.92330261 41.54339539 19.92330261 41.54339539 18.60168457 41.55578613 C12.63463268 41.46263 12.63463268 41.46263 9.48046875 39.16333008 C7.47495363 36.23277772 7.0663725 33.68634061 6.5 30.1875 C6.26741095 28.84688718 6.03029008 27.50705413 5.7890625 26.16796875 C5.66563477 25.48138184 5.54220703 24.79479492 5.41503906 24.08740234 C4.49737021 19.47206782 3.14730558 14.96256857 1.8671875 10.4375 C0.99115859 6.96495298 0.48118786 3.54592763 0 0 Z " fill="#1A46D6" transform="translate(870,287)"/>
<path d="M0 0 C0.66 0 1.32 0 2 0 C2.235979 0.5576001 2.47195801 1.1152002 2.71508789 1.68969727 C3.82810899 4.31515411 4.94530672 6.93881594 6.0625 9.5625 C6.43310547 10.43841797 6.80371094 11.31433594 7.18554688 12.21679688 C10.31665919 19.55780809 13.66565743 26.78864776 17.06381226 34.00845337 C18.32574179 36.69294858 19.58017741 39.38091721 20.83467102 42.06889343 C22.10876734 44.79811623 23.38538369 47.52615683 24.66210938 50.25415039 C25.30811517 51.63510244 25.95361682 53.01629043 26.59863281 54.39770508 C27.55668069 56.44932369 28.51623231 58.50023005 29.4765625 60.55078125 C29.78096756 61.20174271 30.08537262 61.85270416 30.39900208 62.52339172 C32.52966511 67.05828486 34.76499981 71.527784 37.1105957 75.95507812 C38.69585032 79.59990181 38.58234101 82.05302204 38 86 C36.86547616 88.55633055 35.56192955 90.65710567 34 93 C33.34 93 32.68 93 32 93 C30.48957928 90.82174864 29.11008749 88.64586036 27.75 86.375 C26.85001672 84.90429972 25.94891168 83.4342855 25.046875 81.96484375 C24.55896484 81.16675293 24.07105469 80.36866211 23.56835938 79.54638672 C20.75696183 74.98180447 17.87859967 70.45989767 15 65.9375 C14.40566162 65.00284912 13.81132324 64.06819824 13.19897461 63.10522461 C9.24390239 56.90343282 5.22563526 50.74877494 1.10742188 44.65405273 C0.06378909 43.10795539 -0.96855743 41.55425629 -2 40 C-2.57621094 39.13890625 -3.15242188 38.2778125 -3.74609375 37.390625 C-8.48232732 28.36079651 -3.81244859 11.82940025 -0.8984375 2.45703125 C-0.45371094 1.24080078 -0.45371094 1.24080078 0 0 Z " fill="#F5F9FC" transform="translate(451,365)"/>
<path d="M0 0 C0.84175781 -0.00257813 1.68351562 -0.00515625 2.55078125 -0.0078125 C3.87142578 0.00378906 3.87142578 0.00378906 5.21875 0.015625 C6.09917969 0.00789062 6.97960937 0.00015625 7.88671875 -0.0078125 C8.72847656 -0.00523437 9.57023437 -0.00265625 10.4375 0 C11.59668945 0.00338379 11.59668945 0.00338379 12.77929688 0.00683594 C14.71875 0.265625 14.71875 0.265625 16.71875 2.265625 C16.91881302 5.25524603 16.99847923 8.1502485 16.984375 11.140625 C16.98628845 12.02089355 16.9882019 12.90116211 16.99017334 13.80810547 C16.99153552 15.67090134 16.98783682 17.53370669 16.97949219 19.39648438 C16.96879307 22.25412236 16.97938632 25.11113166 16.9921875 27.96875 C16.99086591 29.77604306 16.98830353 31.58333573 16.984375 33.390625 C16.98842346 34.24897949 16.99247192 35.10733398 16.99664307 35.99169922 C16.94866745 42.03570755 16.94866745 42.03570755 14.71875 44.265625 C12.77929687 44.52441406 12.77929687 44.52441406 10.4375 44.53125 C9.59574219 44.53382813 8.75398438 44.53640625 7.88671875 44.5390625 C7.00628906 44.53132812 6.12585938 44.52359375 5.21875 44.515625 C4.33832031 44.52335938 3.45789063 44.53109375 2.55078125 44.5390625 C1.70902344 44.53648437 0.86726563 44.53390625 0 44.53125 C-0.77279297 44.52899414 -1.54558594 44.52673828 -2.34179688 44.52441406 C-4.28125 44.265625 -4.28125 44.265625 -6.28125 42.265625 C-6.48131302 39.27600397 -6.56097923 36.3810015 -6.546875 33.390625 C-6.54878845 32.51035645 -6.5507019 31.63008789 -6.55267334 30.72314453 C-6.55403552 28.86034866 -6.55033682 26.99754331 -6.54199219 25.13476562 C-6.53129307 22.27712764 -6.54188632 19.42011834 -6.5546875 16.5625 C-6.55336591 14.75520694 -6.55080353 12.94791427 -6.546875 11.140625 C-6.55092346 10.28227051 -6.55497192 9.42391602 -6.55914307 8.53955078 C-6.51230651 2.63904239 -6.26348324 0.01828373 0 0 Z " fill="#FBFDFD" transform="translate(384.28125,674.734375)"/>
<path d="M0 0 C0.73871338 -0.01297119 1.47742676 -0.02594238 2.23852539 -0.03930664 C4.07723569 -0.04252906 5.91544316 0.06393966 7.75 0.1875 C10.19986932 2.63736932 10.00631311 3.324578 10.015625 6.6875 C10.01949219 8.0178125 10.01949219 8.0178125 10.0234375 9.375 C10.01570312 10.303125 10.00796875 11.23125 10 12.1875 C10.01160156 13.5796875 10.01160156 13.5796875 10.0234375 15 C10.02085937 15.886875 10.01828125 16.77375 10.015625 17.6875 C10.01336914 18.5021875 10.01111328 19.316875 10.00878906 20.15625 C9.75 22.1875 9.75 22.1875 7.75 24.1875 C4.22974852 25.46598675 0.72604277 25.30143001 -2.984375 25.28515625 C-4.27988281 25.28193359 -5.57539062 25.27871094 -6.91015625 25.27539062 C-8.27343817 25.26703598 -9.63671942 25.25857104 -11 25.25 C-12.37890465 25.24498168 -13.75781104 25.24041935 -15.13671875 25.23632812 C-18.50783118 25.22454102 -21.8789211 25.20660561 -25.25 25.1875 C-25.25 17.5975 -25.25 10.0075 -25.25 2.1875 C-18.44135713 -1.21682144 -7.60819466 0.07227338 0 0 Z " fill="#F6F9FB" transform="translate(610.25,634.8125)"/>
<path d="M0 0 C0.33 0 0.66 0 1 0 C1.04722415 7.97408172 1.08231033 15.94810102 1.10362434 23.92228985 C1.11387569 27.62866486 1.1276726 31.33494143 1.15087891 35.04125977 C1.27138238 54.80269327 0.66094903 74.29799859 -1 94 C-7.93 94.99 -7.93 94.99 -15 96 C-15.24514005 88.00675032 -14.32127022 80.60858815 -12.953125 72.7421875 C-12.74065125 71.48149445 -12.52817749 70.22080139 -12.30926514 68.92190552 C-11.7458853 65.57953486 -11.17283121 62.23889678 -10.59753418 58.89855957 C-10.02811889 55.58307056 -9.46742293 52.26611101 -8.90625 48.94921875 C-8.03025514 43.77747675 -7.14876187 38.60671602 -6.26367188 33.43652344 C-5.43052319 28.55699318 -4.61384806 23.6752117 -3.81445312 18.79003906 C-3.63130554 17.67355988 -3.44815796 16.55708069 -3.25946045 15.4067688 C-2.91787306 13.31759839 -2.57890553 11.22799736 -2.24298096 9.13790894 C-2.0928656 8.22115387 -1.94275024 7.3043988 -1.78808594 6.35986328 C-1.65915955 5.5613797 -1.53023315 4.76289612 -1.3973999 3.94021606 C-1 2 -1 2 0 0 Z " fill="#EAF0F9" transform="translate(573,400)"/>
<path d="M0 0 C14.19 0 28.38 0 43 0 C43 5.61 43 11.22 43 17 C33.19102554 17.05075795 23.42755522 16.86934271 13.625 16.5 C12.29167502 16.45159225 10.95834168 16.40341426 9.625 16.35546875 C6.41658463 16.23922182 3.2082796 16.11993569 0 16 C0 10.72 0 5.44 0 0 Z " fill="#0EC4A8" transform="translate(697,528)"/>
<path d="M0 0 C0.66 0 1.32 0 2 0 C4.21499813 7.58754678 5.53324483 15.13793631 6.60546875 22.95703125 C6.74094116 23.92564087 6.87641357 24.89425049 7.01599121 25.89221191 C7.34688877 28.26108782 7.67481978 30.63033369 8 33 C9.13195801 32.99476318 10.26391602 32.98952637 11.43017578 32.98413086 C45.3003649 32.84519788 79.16612364 33.08957203 113.03469086 33.40571976 C116.49091119 33.43741665 119.94714235 33.46745336 123.40338135 33.49703979 C128.94135672 33.54474059 134.47927035 33.59708655 140.01716995 33.65287781 C142.07788393 33.67304192 144.13861197 33.69182473 146.19935226 33.70909119 C173.12040921 33.9383015 173.12040921 33.9383015 180 35 C180.33 35.66 180.66 36.32 181 37 C165.53098817 36.8908881 150.06200816 36.77786729 134.59305573 36.66066074 C127.4043337 36.60627591 120.21560712 36.55301627 113.02685547 36.50268555 C58.03843073 36.11622847 58.03843073 36.11622847 31.20005798 35.64414787 C29.10462153 35.60823821 27.00912776 35.57551698 24.91358948 35.54614449 C22.07297799 35.50518308 19.23289757 35.45171849 16.39257812 35.39428711 C15.56113281 35.38452032 14.7296875 35.37475353 13.87304688 35.36469078 C8.22906352 35.22906352 8.22906352 35.22906352 6 33 C5.41844594 30.88734882 4.930835 28.74844128 4.4921875 26.6015625 C4.22792969 25.31765625 3.96367188 24.03375 3.69140625 22.7109375 C3.55750488 22.04030273 3.42360352 21.36966797 3.28564453 20.67871094 C2.87761388 18.63807251 2.45738671 16.60024232 2.03515625 14.5625 C0 4.55715055 0 4.55715055 0 0 Z " fill="#3755B7" transform="translate(627,444)"/>
<path d="M0 0 C0.66 0.33 1.32 0.66 2 1 C1.34 2.98 0.68 4.96 0 7 C-14.85 7 -29.7 7 -45 7 C-45 6.34 -45 5.68 -45 5 C-43.1605481 4.96241577 -43.1605481 4.96241577 -41.28393555 4.92407227 C-36.7384173 4.82996946 -32.19305083 4.72975567 -27.64770508 4.62768555 C-25.67964221 4.58434759 -23.71154202 4.54267168 -21.7434082 4.50268555 C-18.9160639 4.44495555 -16.08890729 4.38126884 -13.26171875 4.31640625 C-12.38037766 4.29969376 -11.49903656 4.28298126 -10.59098816 4.26576233 C-9.77036392 4.24581711 -8.94973969 4.22587189 -8.10424805 4.20532227 C-7.38254929 4.18977798 -6.66085052 4.1742337 -5.9172821 4.15821838 C-3.77891856 4.05804743 -3.77891856 4.05804743 -1 3 C-0.67 2.01 -0.34 1.02 0 0 Z " fill="#BCEEEA" transform="translate(741,521)"/>
<path d="M0 0 C0.33 0 0.66 0 1 0 C1.12785787 5.5854728 0.71936398 10.71107745 -0.27734375 16.19921875 C-0.47355064 17.33457817 -0.47355064 17.33457817 -0.67372131 18.49287415 C-1.08865435 20.89223868 -1.51204384 23.28998068 -1.9375 25.6875 C-2.49543221 28.83603846 -3.04728603 31.98549298 -3.58984375 35.13671875 C-3.7216806 35.89773895 -3.85351746 36.65875916 -3.98934937 37.44284058 C-4.92775697 43.05772829 -5.42002997 48.61662021 -5.59594727 54.31176758 C-6.06810251 57.45309774 -7.21913961 59.39870667 -9 62 C-10.26149735 58.21550796 -9.50720517 55.38759314 -8.7578125 51.5859375 C-8.46961317 50.04433021 -8.18357079 48.5023185 -7.89941406 46.95996094 C-7.74976196 46.14926147 -7.60010986 45.33856201 -7.44592285 44.5032959 C-6.70039926 40.31811873 -6.0638819 36.11732239 -5.4296875 31.9140625 C-5.30152649 31.07002869 -5.17336548 30.22599487 -5.0413208 29.35638428 C-4.51608174 25.88970756 -3.9947345 22.42245221 -3.47412109 18.95507812 C-3.08650877 16.37856839 -2.69574144 13.80255175 -2.3046875 11.2265625 C-2.18801727 10.44229889 -2.07134705 9.65803528 -1.95114136 8.8500061 C-1.48574527 5.78979007 -0.98103994 2.94311982 0 0 Z " fill="#25BFA3" transform="translate(826,472)"/>
<path d="M0 0 C0.66 0 1.32 0 2 0 C4.18780362 7.91333223 5.73004652 15.84066627 6.99731445 23.94287109 C7.48922415 27.06519245 7.9983202 29.99496059 9 33 C22.365 33.495 22.365 33.495 36 34 C36 34.33 36 34.66 36 35 C32.04903022 35.04939662 28.0981797 35.08571755 24.14697266 35.10986328 C22.1408864 35.12488107 20.13488676 35.15028981 18.12890625 35.17578125 C16.87207031 35.18222656 15.61523438 35.18867188 14.3203125 35.1953125 C13.15773926 35.20578613 11.99516602 35.21625977 10.79736328 35.22705078 C8 35 8 35 6 33 C5.41844594 30.88734882 4.930835 28.74844128 4.4921875 26.6015625 C4.22792969 25.31765625 3.96367188 24.03375 3.69140625 22.7109375 C3.55750488 22.04030273 3.42360352 21.36966797 3.28564453 20.67871094 C2.87761388 18.63807251 2.45738671 16.60024232 2.03515625 14.5625 C0 4.55715055 0 4.55715055 0 0 Z " fill="#3B58B7" transform="translate(627,444)"/>
<path d="M0 0 C0.33 0 0.66 0 1 0 C1.70564724 4.07707296 2.05937325 7.03661056 1 11 C0.71067867 13.615947 0.49631227 16.23247716 0.28125 18.85546875 C0 21 0 21 -1 22 C-0.979375 23.11375 -0.95875 24.2275 -0.9375 25.375 C-0.8803663 30.6313002 -1.41784693 35.9743373 -3 41 C-3.99 41.66 -4.98 42.32 -6 43 C-4.59894438 28.56544008 -2.38766194 14.30164323 0 0 Z " fill="#C9F5F2" transform="translate(841,383)"/>
<path d="M0 0 C0.78552246 0.01047363 1.57104492 0.02094727 2.38037109 0.03173828 C3.23115234 0.03818359 4.08193359 0.04462891 4.95849609 0.05126953 C6.29267578 0.07640625 6.29267578 0.07640625 7.65380859 0.10205078 C8.99958984 0.11558594 8.99958984 0.11558594 10.37255859 0.12939453 C12.59157445 0.15300108 14.81005937 0.18592768 17.02880859 0.22705078 C17.02880859 0.55705078 17.02880859 0.88705078 17.02880859 1.22705078 C15.82482422 1.27603516 14.62083984 1.32501953 13.38037109 1.37548828 C11.80482662 1.45051421 10.22930693 1.52606212 8.65380859 1.60205078 C7.85974609 1.63298828 7.06568359 1.66392578 6.24755859 1.69580078 C1.66213484 1.74521499 1.66213484 1.74521499 -1.97119141 4.22705078 C-2.21700984 7.09141902 -2.34488522 9.86608218 -2.38525391 12.73486328 C-2.40462006 13.57548309 -2.42398621 14.41610291 -2.44393921 15.28219604 C-2.50380799 17.97204381 -2.55014912 20.66193422 -2.59619141 23.35205078 C-2.63436451 25.17368422 -2.67341584 26.99529948 -2.71337891 28.81689453 C-2.80951538 33.2867993 -2.8935191 37.75678857 -2.97119141 42.22705078 C-3.30119141 42.22705078 -3.63119141 42.22705078 -3.97119141 42.22705078 C-4.02054067 36.56707032 -4.05688669 30.90721443 -4.08105469 25.24707031 C-4.09112723 23.32061584 -4.10478584 21.3941767 -4.12207031 19.46777344 C-4.14626382 16.70259826 -4.15766177 13.93762478 -4.16650391 11.17236328 C-4.17682648 10.30773468 -4.18714905 9.44310608 -4.19778442 8.55227661 C-4.19818247 6.44251557 -4.09384384 4.3332436 -3.97119141 2.22705078 C-1.97119141 0.22705078 -1.97119141 0.22705078 0 0 Z " fill="#C1DFED" transform="translate(381.97119140625,674.77294921875)"/>
<path d="M0 0 C0.33 0 0.66 0 1 0 C1 19.14 1 38.28 1 58 C0.67 58 0.34 58 0 58 C-0.01030746 57.36772995 -0.02061493 56.7354599 -0.03123474 56.08403015 C-0.13926004 49.51432876 -0.25386139 42.94476562 -0.37231445 36.37524414 C-0.41567602 33.92214851 -0.45735019 31.46902247 -0.49731445 29.01586914 C-0.55498721 25.49355899 -0.61869052 21.97140216 -0.68359375 18.44921875 C-0.70030624 17.34913986 -0.71701874 16.24906097 -0.73423767 15.11564636 C-0.75418289 14.09481461 -0.77412811 13.07398285 -0.79467773 12.0222168 C-0.81022202 11.12286911 -0.8257663 10.22352142 -0.84178162 9.29692078 C-0.91487339 6.83823531 -0.91487339 6.83823531 -2 4 C-1.0625 1.8125 -1.0625 1.8125 0 0 Z " fill="#D4E3F6" transform="translate(548,365)"/>
<path d="M0 0 C7.92 0 15.84 0 24 0 C24.60425992 5.43833924 25.12411423 10.20206242 25.0625 15.5625 C25.05347656 16.59503906 25.04445313 17.62757813 25.03515625 18.69140625 C25.02355469 19.45324219 25.01195312 20.21507812 25 21 C24.34 20.67 23.68 20.34 23 20 C23 13.73 23 7.46 23 1 C15.74 1 8.48 1 1 1 C1 2.65 1 4.3 1 6 C0.01 6 -0.98 6 -2 6 C-1.34 4.02 -0.68 2.04 0 0 Z " fill="#224CB6" transform="translate(557,284)"/>
<path d="M0 0 C3 2.5 3 2.5 5 5 C4.34 6.32 3.68 7.64 3 9 C2.690625 8.195625 2.38125 7.39125 2.0625 6.5625 C1.23664655 4.10919595 1.23664655 4.10919595 0 3 C-4.61982692 2.73850036 -6.77484052 2.88742026 -11 5 C-11.33 11.93 -11.66 18.86 -12 26 C-12.33 26 -12.66 26 -13 26 C-13.0875127 22.77100574 -13.14056146 19.54231884 -13.1875 16.3125 C-13.21263672 15.40048828 -13.23777344 14.48847656 -13.26367188 13.54882812 C-13.35702951 4.99104477 -13.35702951 4.99104477 -10 1 C-6.78707942 -0.60646029 -3.4741348 -0.62441428 0 0 Z " fill="#477EA8" transform="translate(752,699)"/>
<path d="M0 0 C1.12067871 0.01047363 2.24135742 0.02094727 3.39599609 0.03173828 C5.21357422 0.04140625 5.21357422 0.04140625 7.06787109 0.05126953 C8.33888672 0.06802734 9.60990234 0.08478516 10.91943359 0.10205078 C12.19818359 0.11107422 13.47693359 0.12009766 14.79443359 0.12939453 C17.96128526 0.15302775 21.12776783 0.18597449 24.29443359 0.22705078 C24.62443359 2.53705078 24.95443359 4.84705078 25.29443359 7.22705078 C24.92729248 6.57961914 24.56015137 5.9321875 24.18188477 5.26513672 C22.42377975 2.96393471 22.42377975 2.96393471 19.4753418 2.68115234 C18.3598999 2.66020508 17.24445801 2.63925781 16.09521484 2.61767578 C14.88671875 2.58544922 13.67822266 2.55322266 12.43310547 2.52001953 C10.53915039 2.49875 10.53915039 2.49875 8.60693359 2.47705078 C7.33269531 2.44740234 6.05845703 2.41775391 4.74560547 2.38720703 C1.59515067 2.31641029 -1.55455981 2.26376031 -4.70556641 2.22705078 C-2.70556641 0.22705078 -2.70556641 0.22705078 0 0 Z " fill="#38C1B5" transform="translate(845.70556640625,286.77294921875)"/>
<path d="M0 0 C2.62451617 2.62451617 2.5832868 4.4877828 3.125 8.125 C3.29257812 9.22070312 3.46015625 10.31640625 3.6328125 11.4453125 C3.75398437 12.28835938 3.87515625 13.13140625 4 14 C2.72382812 14.06058594 1.44765625 14.12117188 0.1328125 14.18359375 C-1.53647016 14.26799568 -3.20574037 14.35264386 -4.875 14.4375 C-5.71675781 14.47681641 -6.55851563 14.51613281 -7.42578125 14.55664062 C-8.63427734 14.61948242 -8.63427734 14.61948242 -9.8671875 14.68359375 C-10.61081543 14.72025146 -11.35444336 14.75690918 -12.12060547 14.79467773 C-14.08864312 14.89955865 -14.08864312 14.89955865 -16 16 C-16 15.01 -16 14.02 -16 13 C-12.68455701 11.89485234 -9.79589889 11.67892369 -6.3125 11.4375 C-5.13300781 11.35371094 -3.95351563 11.26992188 -2.73828125 11.18359375 C-1.83464844 11.12300781 -0.93101562 11.06242187 0 11 C0 7.37 0 3.74 0 0 Z " fill="#26B8B0" transform="translate(871,294)"/>
<path d="M0 0 C0.33 0 0.66 0 1 0 C0.95359375 1.27875 0.9071875 2.5575 0.859375 3.875 C0.82182973 5.58330979 0.78543255 7.29164508 0.75 9 C0.71648438 9.83917969 0.68296875 10.67835938 0.6484375 11.54296875 C0.56416091 16.97880887 1.33250894 20.6210368 4.13378906 25.30859375 C5 27 5 27 5 30 C0.91289718 26.15882601 -1.64393938 21.95144225 -2.32421875 16.3125 C-2.42807304 10.56057009 -1.65900859 5.49546596 0 0 Z " fill="#196BC2" transform="translate(741,525)"/>
<path d="M0 0 C4.88208398 4.88208398 3.04905215 16.76708725 3.06591797 23.4206543 C3.06096179 27.61393668 3.03865433 31.80689672 3 36 C2.67 36 2.34 36 2 36 C1.93941406 34.89140625 1.87882813 33.7828125 1.81640625 32.640625 C1.73197049 31.1770718 1.64732401 29.71353075 1.5625 28.25 C1.52318359 27.52039063 1.48386719 26.79078125 1.44335938 26.0390625 C1.22523704 21.98286152 1.22523704 21.98286152 0.48632812 18 C-0.33206968 14.6343801 -0.10204485 11.1934441 -0.0625 7.75 C-0.05798828 7.00492187 -0.05347656 6.25984375 -0.04882812 5.4921875 C-0.03709246 3.6614236 -0.0191585 1.83070127 0 0 Z " fill="#4F71D1" transform="translate(924,288)"/>
<path d="M0 0 C-1.26691507 0.67408308 -2.53870749 1.33900497 -3.8125 2 C-4.52019531 2.37125 -5.22789062 2.7425 -5.95703125 3.125 C-8 4 -8 4 -11 4 C-11.226875 4.556875 -11.45375 5.11375 -11.6875 5.6875 C-13.35896766 8.63246684 -15.55276352 10.68156544 -18 13 C-18.99 12.67 -19.98 12.34 -21 12 C-16.18577216 5.6722081 -8.67288742 -2.69158575 0 0 Z " fill="#335BC6" transform="translate(764,510)"/>
<path d="M0 0 C4.13621084 3.3810038 7.81316569 6.66590534 11 11 C9.71792641 13.86001033 8.50848764 16.07039412 6 18 C2 18 2 18 0.25 16.625 C-1 15 -1 15 -1 13 C-0.4225 13.350625 0.155 13.70125 0.75 14.0625 C3.35801776 15.14917407 4.39417629 14.93065133 7 14 C7.59197613 11.80085503 7.59197613 11.80085503 7 9 C5.29943687 7.01387865 3.47903075 5.29373585 1.53125 3.55078125 C0 2 0 2 0 0 Z " fill="#2D54BF" transform="translate(357,405)"/>
<path d="M0 0 C0.6875 1.6875 0.6875 1.6875 1 4 C-0.25 6.6875 -0.25 6.6875 -2 9 C-2.99 9.33 -3.98 9.66 -5 10 C-5.33 10.66 -5.66 11.32 -6 12 C-11.73439187 15.17221678 -16.52716457 15.35164297 -23 15 C-23 14.67 -23 14.34 -23 14 C-22.34773437 13.89042969 -21.69546875 13.78085937 -21.0234375 13.66796875 C-13.02629785 12.21716023 -7.50984938 10.27510624 -2 4 C-0.70480005 1.83379456 -0.70480005 1.83379456 0 0 Z " fill="#C2F5F2" transform="translate(818,531)"/>
<path d="M0 0 C0.99 0.33 1.98 0.66 3 1 C2.319375 1.515625 1.63875 2.03125 0.9375 2.5625 C-2.60342473 5.50071413 -5.79109819 8.70787019 -9 12 C-9.99 11.67 -10.98 11.34 -12 11 C-8.43569436 6.35560175 -5.01847157 3.06684374 0 0 Z " fill="#2E59CC" transform="translate(657,511)"/>
<path d="M0 0 C0.66 0 1.32 0 2 0 C2.99 2.97 3.98 5.94 5 9 C6.98 8.34 8.96 7.68 11 7 C11 5.02 11 3.04 11 1 C12.5 2.25 12.5 2.25 14 4 C14 5.32 14 6.64 14 8 C9.545 9.485 9.545 9.485 5 11 C4.16426177 9.35538655 3.33147118 7.70927487 2.5 6.0625 C2.0359375 5.14597656 1.571875 4.22945312 1.09375 3.28515625 C0 1 0 1 0 0 Z " fill="#2C50B4" transform="translate(215,510)"/>
<path d="M0 0 C0.33 0.99 0.66 1.98 1 3 C0.525625 3.598125 0.05125 4.19625 -0.4375 4.8125 C-2.46962336 7.6574727 -2.23298497 9.58288717 -2 13 C-0.35 13 1.3 13 3 13 C2.01 14.485 2.01 14.485 1 16 C0.01 16 -0.98 16 -2 16 C-4.03939925 13.45075094 -5.02214136 11.86351303 -4.9375 8.5625 C-3.75564653 5.33210051 -2.00497712 2.78109729 0 0 Z " fill="#2C54BE" transform="translate(393,531)"/>
<path d="M0 0 C0.80244141 0.00966797 1.60488281 0.01933594 2.43164062 0.02929688 C3.26501953 0.05443359 4.09839844 0.07957031 4.95703125 0.10546875 C6.22450195 0.12577148 6.22450195 0.12577148 7.51757812 0.14648438 C9.60183509 0.18181076 11.68576402 0.23561736 13.76953125 0.29296875 C13.76953125 0.62296875 13.76953125 0.95296875 13.76953125 1.29296875 C8.15953125 1.29296875 2.54953125 1.29296875 -3.23046875 1.29296875 C-5.23046875 5.05726649 -5.23046875 5.05726649 -6.23046875 8.29296875 C-6.89046875 8.29296875 -7.55046875 8.29296875 -8.23046875 8.29296875 C-7.4842488 2.7709411 -5.87019665 -0.1248978 0 0 Z " fill="#D8F8F8" transform="translate(861.23046875,307.70703125)"/>
<path d="M0 0 C0.66 0 1.32 0 2 0 C2.50744423 1.89385437 3.00564574 3.79018666 3.5 5.6875 C3.7784375 6.74324219 4.056875 7.79898437 4.34375 8.88671875 C4.9391715 11.71142672 5.12786492 14.12836708 5 17 C4.34 16.67 3.68 16.34 3 16 C2.1484375 13.41796875 2.1484375 13.41796875 1.375 10.1875 C0.98441406 8.60001953 0.98441406 8.60001953 0.5859375 6.98046875 C0 4 0 4 0 0 Z " fill="#2D4FC2" transform="translate(627,444)"/>
<path d="M0 0 C0.56203125 0.24621094 1.1240625 0.49242187 1.703125 0.74609375 C-7.396875 7.74609375 -7.396875 7.74609375 -11.296875 7.74609375 C-9.89472566 6.37690091 -8.47459027 5.02610666 -7.046875 3.68359375 C-5.86351562 2.55244141 -5.86351562 2.55244141 -4.65625 1.3984375 C-2.296875 -0.25390625 -2.296875 -0.25390625 0 0 Z " fill="#224CC1" transform="translate(167.296875,302.25390625)"/>
<path d="M0 0 C-0.8125 1.9375 -0.8125 1.9375 -2 4 C-2.99 4.33 -3.98 4.66 -5 5 C-4.01 6.485 -4.01 6.485 -3 8 C-3.33 8.99 -3.66 9.98 -4 11 C-7.01875733 7.61899179 -7.01875733 7.61899179 -6.9375 4.9375 C-5.48629253 1.93833789 -3.41594079 0 0 0 Z " fill="#2956C3" transform="translate(144,301)"/>
<path d="M0 0 C2.23332348 4.46664695 2.04645297 5.54035147 1.125 10.25 C0.92132812 11.32765625 0.71765625 12.4053125 0.5078125 13.515625 C0.34023438 14.33546875 0.17265625 15.1553125 0 16 C-0.66 16 -1.32 16 -2 16 C-1.34 10.72 -0.68 5.44 0 0 Z " fill="#BAF2EB" transform="translate(834,428)"/>
<path d="M0 0 C0.33 0 0.66 0 1 0 C1.38063221 2.3260857 1.71269945 4.66055264 2 7 C1.67 7.33 1.34 7.66 1 8 C0.71898054 10.31952569 0.55217375 12.63885514 0.37890625 14.96875 C0.25386719 15.6390625 0.12882813 16.309375 0 17 C-0.66 17.33 -1.32 17.66 -2 18 C-1.34 12.06 -0.68 6.12 0 0 Z " fill="#C0F5F0" transform="translate(849,334)"/>
<path d="M0 0 C0.33 0 0.66 0 1 0 C1.36923077 5.53846154 1.36923077 5.53846154 -0.5 7.875 C-1.2425 8.431875 -1.2425 8.431875 -2 9 C-2.99 8.67 -3.98 8.34 -5 8 C-4.19185349 6.66402348 -3.37836819 5.331275 -2.5625 4 C-2.11003906 3.2575 -1.65757812 2.515 -1.19140625 1.75 C-0.79824219 1.1725 -0.40507812 0.595 0 0 Z " fill="#2850C1" transform="translate(145,322)"/>
<path d="M0 0 C0.66 0 1.32 0 2 0 C2.99 3.63 3.98 7.26 5 11 C2.5 10 2.5 10 0 8 C-0.46837899 5.20625708 -0.23424505 2.85778964 0 0 Z " fill="#4E6EC1" transform="translate(442,281)"/>
<path d="M0 0 C1.54627671 2.31941506 2.86182828 4.52979752 4.125 7 C4.47820313 7.680625 4.83140625 8.36125 5.1953125 9.0625 C6 11 6 11 6 14 C3.01380463 11.44040397 1.51448438 8.6059152 0 5 C-0.1875 2.125 -0.1875 2.125 0 0 Z " fill="#2951BF" transform="translate(740,541)"/>
<path d="M0 0 C1.32 0.66 2.64 1.32 4 2 C1.69 3.65 -0.62 5.3 -3 7 C-3.33 6.34 -3.66 5.68 -4 5 C-2.68 3.35 -1.36 1.7 0 0 Z " fill="#296DA2" transform="translate(267,617)"/>
<path d="M0 0 C0.8125 1.6875 0.8125 1.6875 1 4 C-1.25 6.75 -1.25 6.75 -4 9 C-4.99 9 -5.98 9 -7 9 C-7 8.34 -7 7.68 -7 7 C-5.68 7 -4.36 7 -3 7 C-2.67 5.68 -2.34 4.36 -2 3 C-1.34 3 -0.68 3 0 3 C0 2.01 0 1.02 0 0 Z " fill="#BFF0F3" transform="translate(801,519)"/>
<path d="M0 0 C-1.43011973 0.86646667 -2.86940619 1.71781829 -4.3125 2.5625 C-5.51326172 3.27599609 -5.51326172 3.27599609 -6.73828125 4.00390625 C-9 5 -9 5 -12 4 C-12 3.34 -12 2.68 -12 2 C-10.56656 1.46809459 -9.12804633 0.94984742 -7.6875 0.4375 C-6.48673828 0.00244141 -6.48673828 0.00244141 -5.26171875 -0.44140625 C-3 -1 -3 -1 0 0 Z " fill="#3156B7" transform="translate(129,475)"/>
<path d="M0 0 C2.24606427 1.77444972 2.95081002 2.58352485 3.29296875 5.48046875 C3.25816406 6.37378906 3.22335937 7.26710938 3.1875 8.1875 C3.16042969 9.08855469 3.13335938 9.98960937 3.10546875 10.91796875 C3.07066406 11.60503906 3.03585937 12.29210937 3 13 C2.67 13 2.34 13 2 13 C1.66127487 11.58461283 1.32925376 10.16762037 1 8.75 C0.814375 7.96109375 0.62875 7.1721875 0.4375 6.359375 C0 4 0 4 0 0 Z " fill="#2F56CC" transform="translate(616,388)"/>
<path d="M0 0 C-1.24176695 0.70226141 -2.49385599 1.38629109 -3.75 2.0625 C-4.79414062 2.63677734 -4.79414062 2.63677734 -5.859375 3.22265625 C-8.36140628 4.1312406 -9.5332355 3.88336837 -12 3 C-10.75823305 2.29773859 -9.50614401 1.61370891 -8.25 0.9375 C-7.20585938 0.36322266 -7.20585938 0.36322266 -6.140625 -0.22265625 C-3.63859372 -1.1312406 -2.4667645 -0.88336837 0 0 Z " fill="#5477CF" transform="translate(764,510)"/>
<path d="M0 0 C3.34726719 1.11575573 3.62079748 1.51344622 5.25 4.4375 C5.8275 5.613125 6.405 6.78875 7 8 C6.67 8.66 6.34 9.32 6 10 C4.99421411 8.71283353 3.99553202 7.42011342 3 6.125 C2.443125 5.40570313 1.88625 4.68640625 1.3125 3.9453125 C0 2 0 2 0 0 Z " fill="#264FB8" transform="translate(481,480)"/>
<path d="M0 0 C2.93200474 2.85276137 5.64315404 5.65079784 8 9 C7.01 9 6.02 9 5 9 C4.67 8.01 4.34 7.02 4 6 C1.99983534 4.79117904 1.99983534 4.79117904 0 4 C0 2.68 0 1.36 0 0 Z " fill="#3860C7" transform="translate(345,311)"/>
<path d="M0 0 C0.6875 1.6875 0.6875 1.6875 1 4 C-0.3125 6.75 -0.3125 6.75 -2 9 C-2.66 9 -3.32 9 -4 9 C-2.80100302 5.9168649 -1.52299523 2.93720508 0 0 Z " fill="#D5F9F7" transform="translate(818,531)"/>
<path d="M0 0 C0.33 0.66 0.66 1.32 1 2 C-0.65 3.65 -2.3 5.3 -4 7 C-4.33 6.34 -4.66 5.68 -5 5 C-3.35 3.35 -1.7 1.7 0 0 Z " fill="#2B6B9E" transform="translate(555,617)"/>
<path d="M0 0 C1.32 0.33 2.64 0.66 4 1 C3.34 3.97 2.68 6.94 2 10 C1.07461831 6.29847322 0.91825838 5.36541838 2 2 C1.34 2 0.68 2 0 2 C0 1.34 0 0.68 0 0 Z " fill="#2E54BF" transform="translate(381,373)"/>
<path d="M0 0 C0 0.66 0 1.32 0 2 C-0.639375 2.103125 -1.27875 2.20625 -1.9375 2.3125 C-2.618125 2.539375 -3.29875 2.76625 -4 3 C-4.33 3.99 -4.66 4.98 -5 6 C-5.99 6.33 -6.98 6.66 -8 7 C-6.47663111 3.31852519 -4.31953005 0 0 0 Z " fill="#3573A2" transform="translate(748,617)"/>
<path d="M0 0 C0.66 0 1.32 0 2 0 C2.33 1.65 2.66 3.3 3 5 C2.34 5 1.68 5 1 5 C-0.62514468 6.45833358 -0.62514468 6.45833358 -2 8 C-1.34 5.36 -0.68 2.72 0 0 Z " fill="#BDD1F0" transform="translate(451,365)"/>
</svg>
